<?xml version="1.0" encoding="utf-8"?>
<!-- Generator: $$$/GeneralStr/196=Adobe Illustrator 27.6.0, SVG Export Plug-In . SVG Version: 6.00 Build 0)  -->
<svg version="1.1" xmlns="http://www.w3.org/2000/svg" xmlns:xlink="http://www.w3.org/1999/xlink" x="0px" y="0px"
	 viewBox="0 0 630 612" style="enable-background:new 0 0 630 612;" xml:space="preserve">
<style type="text/css">
	.st0{opacity:0.3;fill:#B9B9B9;stroke:#FFFFFF;stroke-width:0.5;stroke-miterlimit:3.9745;}
	.st1{opacity:0.3;}
	.st2{display:none;}
	.st3{display:inline;opacity:0.4;}
	.st4{display:inline;fill:none;stroke:#000000;stroke-width:0.2835;stroke-miterlimit:10;}
	.st5{display:inline;fill:none;}
	.st6{display:inline;}
	.st7{font-family:'AtlasGrotesk-Regular';}
	.st8{font-size:5.5px;}
</style>
<g id="map" xmlns:rdf="http://www.w3.org/1999/02/22-rdf-syntax-ns#" xmlns:inkscape="http://www.inkscape.org/namespaces/inkscape" xmlns:cc="http://creativecommons.org/ns#" xmlns:sodipodi="http://sodipodi.sourceforge.net/DTD/sodipodi-0.dtd" xmlns:svg="http://www.w3.org/2000/svg" xmlns:dc="http://purl.org/dc/elements/1.1/" inkscape:output_extension="org.inkscape.output.svg.inkscape" inkscape:version="0.46" sodipodi:docbase="C:\Documents and Settings\Robin\Bureau" sodipodi:docname="Circonscriptions2.svg" sodipodi:version="0.32">
	<defs  class="st1">
		
			<inkscape:perspective  id="perspective2887" inkscape:persp3d-origin="293.75 : 183.33333 : 1" inkscape:vp_x="0 : 275 : 1" inkscape:vp_y="0 : 1000 : 0" inkscape:vp_z="587.5 : 275 : 1" sodipodi:type="inkscape:persp3d">
			</inkscape:perspective>
	</defs>
	
		<sodipodi:namedview  bordercolor="#666666" borderlayer="top" borderopacity="1.0" id="base" inkscape:current-layer="svg2" inkscape:cx="324.71766" inkscape:cy="429.62689" inkscape:document-units="px" inkscape:guide-bbox="true" inkscape:pageopacity="0.0" inkscape:pageshadow="2" inkscape:window-height="951" inkscape:window-width="1280" inkscape:window-x="0" inkscape:window-y="25" inkscape:zoom="10.614315" pagecolor="#ffffff" showgrid="false" showguides="true">
		</sodipodi:namedview>
	<path inkscape:label="Haute-Corse" class="st0" d="M562.1,494.7l-2.8,1.9l0.4,1.9l1.5,1.9l-1.7,1.3l0.8,1.5l-1.1,1.3v1.7l1.9,1.7
		v2.6l-1.1,2.5l-1.3,0.6l-1.5-2.1l-2.7,0.2l-0.6-0.4h-2.3l-2.1,1.9l-0.8,3.2l-4.9,0.9l-3.8,3.2l-0.8,2.1l-1.9-0.2l-1-1.1l-0.5,3.2
		l-1.3,0.5l-0.4,3l0.6,1.3l-2.1,1.5l-0.6,1.5l2.1,0.4l0.4,1h3.8l1,0.7l2.8-0.5l1.2,0.7l-0.5,0.8l1.9,2.6h3.6l0.9,2.6h2.5l-0.2,1.5
		l2.1,2.6l1,0.5l1.4,0.8v3.3l1,0.8h2.1l0.5,0.8l0.3,4.6l1.2,0.8l-0.5,0.7l0.3,2.7l3.9-0.2l3.3-2.2l-0.1-5.6l4.5-6.4v-10.6l-1.9-3.6
		l-0.6-11.3l-1.3-2.1l-2.5-1.9l-0.4-7l1.1-3.2l-1.5-5.1l-0.9-4.1l-0.8-1.1L562.1,494.7z"/>
	<path inkscape:label="Tarn-et-Garonne" class="st0" d="M266.6,425.6l-1.3,4.3l2.1,2.3l-0.9,3.6l-1.1,1.3l0.8,2.3l-3.6,0.8l-2.8,0.8
		l0.8,2.6l-1.4,0.4l0.8,0.8h2.8l1.4-0.7l1.2,0.7l-2.2,1v1.7l-2.1,1.5v2.2l3.8,0.2l1.2,1.2v2.4l1.4,1.4l-1.2,1.9l0.5,1l2.4-1h5
		l1.4-0.8h1.7l1.9,2.2l4.3-1.2l1.2-1.9l-1.7-0.9l1.2-0.5l0.4-1.7l1.9,0.2l1,1.2l0.8-1.4l2.8-1l1.2,0.6l1-1.6l-1.7-1.9h3.2l1-1.9
		l2.2-2.1h-2.2l0.7-2.9l5.8-0.7l2.2-1.4l2.7-1l0.9-0.9l-1.1-2.7l1.5-3.1l-2.7-0.2l-0.3-4.3l-4.1,1.9l-2.8-0.7l-1.7,2.1l-2.9-0.4
		l-0.5,3.4h-1.4l-0.8-1.9l-0.5-0.8l-1.5,0.2l-2.9,3.1l-3.6-0.2l-0.5-2.2v-1.7l-0.3-0.4l-1.2,1.4h-1.5l-1.7-1.9h-1.5l-1-2.1l1.4-1.5
		l-0.2-1l-2.4,0.1l0.3,0.7l-4.2,0.8L266.6,425.6z"/>
	<path inkscape:label="Vendee" class="st0" d="M187.5,275.4l-1.1,2h-3.1l1.2,1.3l-0.9,3.1l-2.8,0.9l-1.1-0.8l0.5-3.1l-0.8-1.7h-1.7
		l-1.2,1.4l0.6,4.4l1.4,2l-1.4,1.6l-2.6-0.5l-3.9-0.9l-1.1-3l-2.5-0.3l-3.3-1.4l-0.8-1.9l-3.6-2.3l-5.6,7.3l-0.2,4.5l5.8,5.7
		l-0.2,1.7h1.7l3.6,10.8l3.8,1.9l3.8,3.8h4.4l1.7,3.8h4.2l1.9,2.8l4.2,2.1l0.2-2.7l1.1,1l5.8-3.5l2.7-0.2l1.1,3l3.6-1.5l3,2.3
		l2.5-1.1l2.1-0.6l0.9-1.1l2.6-1.7l-1.9-1.9l-1.5,1.1l-0.2-1.5l1.3-2.5l-1.3-2.3l1.1-1.5l-0.6-5.3l-1.9-2.8l1.3-1.7l-3-3.4l1.1-2.5
		l-4.5-3.8v-2.3l-1.9-2.7l0.4-0.2l-2.6-2.2h-4.8l-1.6-0.9l-2.2-0.3l-2.5-2.4L187.5,275.4z"/>
	<path id="departement56" inkscape:label="Morbihan" class="st0" d="M107.6,208.6l-3.1,1.5h-2.2l-2.3,1.9l0.2,1.4l1.4,3.6l0.8,2.8
		l4.8,0.8l2.4,1.9l0.9-1.1l1.5,2.1l-0.8,0.9l-0.2,2.8h-1.4l-1.1,1.7h-2.2l-0.9,3.7l2.1,3.4l3,0.8l1.1-1.7l-0.5,2.1l2.6,1.1l3.4,3.4
		l1.1,2.1l-0.4,2.5l-0.4,2.5l2.3,1.7l1.1-1.3l-1.1-1.5v-3.4l2.3,0.5l0.8-2.3l0.6,1.3l2.5,2.1l1.1-1.9l-1.1-2.6l2.1,2.8l2.6-0.4
		l-0.5-1.3l2.5,0.6l1.9,2.3l-0.9,1.5l-2.5-0.8l-2.8-1.3l-1.5,1.9l2.3,0.8l1.7,2.6l10.2-0.9l2.6,0.6l-1.3,1.1l0.2,1.7l0.4,0.3
		l0.8-0.2l1.7-1.7l1.1,1.3h3l3.6-1.9l5.3-2.1l0.2-5.3l1.1-0.6l-2-3.8l1.7-1.4l-0.3-0.9l-1.1-0.6l1.7-0.8l1.6-1.9l-0.2-1.9h-2
		l-0.5-1.8l1.4-1.9l-1.6-2.8l-2.3-1.4h-2.7l-0.9-0.3v-1.2l1.4-1.3l0.8-3.1l-0.5-2l-0.6,0.8l-3.8-0.3l-1.7-3.1h-1.4l-2.2,0.8v2
		l-3,1.9l-2.4-0.9l-0.9-2l-0.8,1.1h-2.2l-1.1-1.4H133l-2.3-2.4l-2.7,0.6l-2.8-2.5l-2.5,0.2l-0.8,1.5l-3,1.6l-3.6-1.6l-0.9-0.9
		l-1.6,1.1l-1.9-0.2l-0.3-1.5l-3-0.8L107.6,208.6z"/>
	<path inkscape:label="Mayenne" class="st0" d="M230.1,194.9l-1.9,0.2l-0.8,1.9l-2.8,1.1l-5.1-0.8l-5.1,3l-1.9-1.3l-2.8,1.9
		l-2.1-1.5l-1.3-2.3l-2.8-1.1l-1.9,1.5l-3.2-0.4l-0.2,4.9l0.9,0.8v3.8l-1.9,1.9v3l0.6,1.9v5.5l1.3,1.3v5.1l-3.2-0.4l-1.3,0.8
		l-2.5,6.1l-1,3.4l-0.3,0.7l3.4,0.7h2.8l3.1,2l1.3-1.5l5.6,1.7l2.2,1.3l5-0.2l2.2-2.2l3.4,1.1h1.8l0,0l0.6-1.4v-5.6l-0.6-0.9
		l0.3-0.9l2.7-0.2l1.2-1.1l0.2-0.9l-1.4-3.4l0.5-1.4l3.1-0.3l-0.3-0.8l0.8-1.9l-0.6-1.4l0.8-1.5l2.8-2.4l-0.3-2.5l0.5-4.1l1.1-1.9
		l3.5-1.1l-0.5,0l-1-3.4l-2.5-0.9l-0.8-4.1L230.1,194.9z"/>
	<path inkscape:label="Loir-et-Cher" class="st0" d="M268.8,219.9l-1.3,1.6l-1.5,2.6l1.9,1.7l-0.2,4l-0.8,2.6H265v3.6l-2.6,3.4
		l-2.8,1.1l-1.3,1.7l0.6,1.4l9.2,0.3l0.8,0.7l-0.1,0.7l-1.4,0.7l0.3,1.9l1.2,0.8l1.9-1.4h0.5l2.2,1.6l1.9,0.2l0.3,4.9l1.5,3.9v6.8
		l1.1,1.6h3.7l2.8,4.2l1.1,0.9l0-0.1l1.9-0.3l1.6-1.4l3.3-0.2l0.3,0.5l0.7-1.5l2.8-1l2.5,0.2l1.2-0.4l1.6,1.5l2.9,1.6l2.4-0.2
		l-0.1-2.5l1.1-1.2l1.1-0.1l0.9,1.1l3.8-0.4l2.4-1.4l-0.3-0.9l-0.7-0.8l0.1-1.8l1.8-3.2l2.3-1v-2l0.5-1.2l-1.5-0.5l-1-2.1l-2.5-0.7
		l-0.1-0.8l2.5-2l2.8-1.4l-1.5-2.3l-6.9-0.3l-0.9,1.1h-1.9l-0.7-0.7l-3-0.4l-0.8,1.8l-1.9,0.5l-1.8-2l-0.4-2.3l-1.6-1.4l-2.5-0.3
		l-1.8-1.2v-1.2l-1.1-2.6l2.1-2.1l-0.3-1.1l-0.9-1.1h-1.1v-1l1.1-1.9l0.1-1.1h-1.6l-2.5-0.7l-2.3,2.2l-2.6,0.3l-4.2-1.1l-1.2-2.7
		l-1.6-0.9l-0.9-2.2h-2.7l-1.1-0.8l1.6-0.9l0.1-0.8h-1.8l-3,0.5L268.8,219.9z"/>
	<path inkscape:label="Cote-d&apos;Or" class="st0" d="M405.2,224.8l-0.4,2.5l-2.5,1.3l-6.2,0.2l0.3,1.4l0.2,1.4l-1.9,1.4v2.3
		l0.4,0.4h1.5l0.9,1.6l-0.5,2.7l-2.2,1.6v1.6l0.7,0.5l-0.2,0.4l-1.4,0.5l-0.4,2l-2.2,4.6l-1.5,2.2v2.2l0.5,0.9l-0.8,1.1l-1.9,0.9
		l0.1,1.9l1.8,1.1l0.7,1.5l-0.3,2.1l-0.4,1.5l0.9,1.6l2.7,0.5l1.2,1.9v0.8l-0.8,0.3v2l0.2,0.1l3.7,3.8l3.8-0.1l3.4,2.6l2.5,1.8
		l0.1,2.3l2.6,0.5l2.2,1.8l5.7-2l3.9-1.2l1.8-0.3l0.5-0.8l1.9,0.1l1.5,0.9l2.2-0.5l2.2-1.5l1.6,0.2l0-0.2l1.3-0.8l-0.2-1l-0.4-1.1
		l0.9-1.5l3.2-1.5v-1.5l1.1-1.5l1.1-1.5l-0.4-1.3l0.5-2.1l0.4-3h0.8l-0.2-1.1l-0.8-0.8l-0.2-3.8l-1.7-0.2l-0.4-3l-2.1-1l0.8-0.9
		l1.1-0.4l2.5-2.8l-0.2-1.5l-1.5-3l-2.2-0.4l-0.8,1.9l-4.1,0.9l-0.4-0.9l-3-3.8l-1.7,0.9l-2.3-0.2l-0.8-1.5l-3,0.2l-0.2-3.2
		l-1.7-1.1l2.5-2.6l-4.4-5.9l-3.4-3.6l-3-1.7H405.2z"/>
	<path inkscape:label="Haute-Loire" class="st0" d="M361.1,369.1l-1.4,0.7v1.2l-2.1,0.2l-1.9,1.5l-3.4,0.5l-0.8,1.1l0.6,0.1l0.8,2.4
		h4.3l0.8,3.1l1.2,1.2l0.3,3.6l1,1.4l2.1,0.2l-1.2,1l-1,0.3l0.9,0.8l-1,1.5l2.1,1.2l1,1.5v1.6l0.5-0.2l3.4,8.7l4.9-1.5l0.4-2.3h1.9
		l0.8,2.6l3.5-0.8l4.4,5.6l2.7-4.3l4.9-3.6h4.5l1.5-4.7l3-0.2l0.2-3.6h2.8l-0.5-1.3l-0.8-2.5l1.1-1.9l2.7-1.1l1.1-4.5l-2.5-2.8
		l-3,0.2l0.4-3.6l-6.1-2.6l-2.1,0.2l-4.2,3.4l-3.8-1.2l-0.8,0.7l-2.4-0.7l-1.7-1.7l-1,2.1l-2.9-0.2l-1.4-1.2l-1,2.4l-1.9-0.8
		l-1.2-2.2h-1.5l-1.4-1.2l-2.1,0.8l-2.4,0.2l-1.4-0.9l-0.8,0.5L361.1,369.1z"/>
	<path inkscape:label="Rhone" class="st0" d="M413.3,319.7l-2.1,0.2l-1.7,1.7l-1.1-1.5l-1.7,1.5l-2.3-1.5h-1.9l-0.8,0.6l-0.4,2.2
		l1,0.8v1.8l1.2,2.1l-1,1.2h-3.9l-0.2,3.7l-1.2,1.2l0.8,3.1v1.8l1.7,1.6v2.3l2.5,2.3v2.7l-1.2,1.8l1.4,0.8v1.4l-1.2,1v1.7l5.4,4.9
		l6.4,1l0.6,1.8l-2.1,2.5l1.7,1l2.1-0.8l2.2,0.3l4-2l-0.6-1.2l-2.7-2.7l4.1-1.5l5.4-1.2l4.1-5.3L429,349l0.2-2l-3.8-1.1l-2.5,0.8
		l-0.4-3.3l-2.3-2.1l-1.5-0.2l-3.7-2.2l0.6-1.5V331l1-1.4l0.4-4.4l-0.6,1.5l-1.3-0.2l-0.7-3.8L413.3,319.7z"/>
	<path inkscape:label="Calvados" class="st0" d="M249.6,147.8l-4.4,0.8l-7.2,4.2l-8.1,3.2l-6.4-3.6l-15.5-2.3l-3.6-1.9l-5.6,1.4
		l0.3,2.1l-1.1,1.1l0.2,1.5l3.6,3.6l2.2,1.2l1.6-2l1.2,1.6l-1.6,2l1.4,2.3l-0.6,0.8l1.1,2.2l-0.6,2.5l-1.6,2.5l-2.5,1.5l-1.4-1.1
		l-1.4,1.2l1.5,1.4l-1.2,2.3l-3,1.1l3.6,4.5l3.6,0.3l2.8,1.8l3.8-1.1l2.8-3.3l3.9,1.1l3.4-2.4l2.1-0.8l2.2,2.2l3.6-0.6l3.1,1.7
		l3.9-1.2l3.6-2.7l2.4-2.7l1.6-0.3l0.5,2l1.2-0.3l0.2-1.4l3.6-0.6l1.2,0.8l3.8-0.8l0.6-1.8l-0.2-1.7l-1.9-0.8l-0.2-1.3l1.7-1.1
		l0.2-1.9l-1.1-4.5l-2.3-3.2l1.9-1.1v-0.8l-1.9-0.6L249.6,147.8z"/>
	<path inkscape:label="Jura" class="st0" d="M441.8,263.8l0.1,0.5h-0.8l-0.4,3l-0.5,2.1l0.4,1.3l-1.1,1.5l-1.1,1.5v1.5l-3.2,1.5
		l-0.9,1.5l0.4,1.1l0.2,1l-1.3,0.8l-0.2,2.5l1.5,0.2l1.7,2.8h2.1l1.1,1.3h1.3l-0.4,1.5l-4.4,0.5l0.4,1.5l1.5,1v1.9l-0.6,0.6l1.1,1.5
		l1.7,3l-0.8,3.2l-1.9,1.3l0.2,2.6l2.3,0.8l0.8,1.1l-1.9,1.5l-5,0.6l2.3,0.9l3.8,5.3l2.5,1.1v2.7l2.8-0.4l3.6-4l3,1.5v2.3h5.5
		l7.9-8.7l-0.3-0.2l0.4-4l2.8-3.4l-1.9-0.8l0.2-1.1l-2.3-0.2l-0.2-1.4l1.5-1.5l-0.4-1.5l-0.8-1.9l3.4-1.1l1.2-1.8l0.3-2.2l-2.7-2.6
		l-1.9-0.5l-4.2-1.4v-3.8l-0.3-2.8l-3.4,0.3l-5.3-1.8l0.8-1.9l1.2-2.9l0.4-1.9l-1.4-1.8l-2.5-1.6l-0.3-2l0-1.1l-1.7-0.1l-0.9,0.9
		h-2.5l-1.6-1.4L441.8,263.8z"/>
	<path inkscape:label="Aube" class="st0" d="M391.6,187.4l-3.8,2.1l-3.3,2.3h-3.2l-5.4,3.7l-4.6,0.8l-3.3-3.4l-0.8,0.2v0.6l-2.6,1.1
		l-0.2,2.3l-1.3,1.7l-0.8,3.8l-0.4,3.2l1.2,1h2.3l4.9,5.1l-0.6,5.1l3.4,2.6l1.9-1.3l3,3.6l0.4,3.4l2.1,2.8l0.9,2.1l7.6,0.4l3.8-1.9
		l1.1,2.1l1.3,0.2l1-2.1l6.2-0.2l2.5-1.3l0.4-2.5h5.5l0.8,0.4l-0.6-2.4l-1.5-1l2.1-1.9l3.3-0.2l1.1-1.7l-0.2-6.9l-0.8-4l-3.3-1.1
		l-3.4-4.8l0.2-2.9l1-2.1l-1.8-0.6l-5.4,1.1h-3.8l-3.4-5.2l-0.4-3.8L391.6,187.4z"/>
	<path inkscape:label="Meuse" class="st0" d="M431.1,136.9l-1.3,2.2l-1.7,1.1l-1.3-1.3h-2.8l-0.5-0.8l-1.9,3.6l-0.8,1.3l2.3,2.8
		l-0.8,3.8l-2.1,1.7l0.2,1.3l0.7,1.9l-1.1,1.1l-2.3,1.1l0.4,2.1l1,0.2l-1.7,1.5l1.3,2.8l1.3,4.2l-1.7,1.9l3-0.2l-1.5,4.7l-2.1,0.9
		l-1.1,2.8l1.1,0.9l-1.3,2.3l0.4,1.5l3.6,2.8l0.2,6.6l4,0.6l2.5,2.6l4.5,2.3l1.7,0.6l4,4.4l-0.4,0.4l3.3-0.4v-1.7l3.7-0.8v-1.3h0.9
		v1.1l3-0.9l1.1-1.5l-0.2,0.1v-2.6l-1.8-1.7v-1.1l1.5-0.7h1.7l-0.6-0.9h-1.1l-0.8-1.7v-3.3l-0.7-2.1l1.5-3.3l1.3-3.5L448,175
		l-0.2-0.9l0.9-1.3h2.2v-0.9l-1.8-0.9l-0.4-1.3l1.8-2l-2-1.9l0.7-1.5l-1.7-0.7l-1.1-0.9l-0.2-2.4l-0.2-1.5l-0.7-1.1l0.2-2.4l0.9-1.1
		v-1.3l-0.9-0.8v-1.7l-0.6-1.7l-0.7-1.5l-1.7-1.3l-3.1,0.9l-1.9,0.2l-0.9,1.7l-0.9,0.7l-0.2-0.7l0.4-1.3l0.4-1.1l-1.1-1.8l0.1-2.3
		h-0.9l-0.8-3.6l-1.5-1.5L431.1,136.9z"/>
	<path inkscape:label="Allier" class="st0" d="M345.4,293.2l-2.6,3.4l-1.5,0.2l-1.7,1.7l-1.9-2.1l-5.1,5.1v3l0.9,0.8l0.2,1.5
		l-2.6,2.1l-2.5-0.8l-4.7,1l-2.5,2.8l-0.9,1.9l0.2,0l2.3,3.2v2.3l1.3,1.7l1.3-1.7l1.5,2.7l2.1,0.8l2.1,4.9l0.1,1.4l2.9,2.2l1.5-0.7
		l1.2-2.9l1.2-0.3v-1.5l2.1-0.2l0.2,1l2.6-2.9h2.9l0.5,1l-1.4,1.9l2,2.2l0.4,1.4l4.8,2.8l5.8,0.8l1.7-0.2l2.6,0.5l2.2-1.4l1.7,0.8
		l0.3,2.4l2.2,0.5l2.9-0.2l0.8,2.1l2.7,1.1l0.1-0.9l4.5-0.2l-0.4-10.8l-1.3-2.6l0.5-2.1l3.1-0.5l0.1-0.2l4-3l0.2-7.4l-1.3-1.9h-3
		l-1.1-1.5h-3.2l-0.9-1.1v-2.8l-3.8-7.2l-1.9-1.3l-3.6,4.9l-1.5,0.4l-0.6-2.5l-1.7-0.8l-0.8,1.5h-2.8l-0.4-1.7l-1.9,1.1l-2.1,1.1
		l-2.3-2.5l-3.2-1.5l-0.2-2.5L345.4,293.2z"/>
	<path inkscape:label="Corse-du-Sud" class="st0" d="M530.5,532.5v2.1l1.9,1.3l3.2,1.9l0.2,1.5l-1.9,0.6l-3,0.6v1.3l1.1,1.1l0.2,3.8
		l4.1,1.3l1.5,0.4l1.3,2.1l-0.9,1.3l-1.5,0.5l-1.1,2.1l-1.1,1.3l0.5,3.4l2.8-0.2l0.8,0.6l2.7-1.3l0.8,0.8l-1.3,2.8l1.3,1.3l-2.3,1.7
		l-1.5,3.4l4.1,1l5.9,0.5l-2.5,2.8c0,0-1.2-0.4-1.7-0.2c0,0,0,0-0.1,0c0,0,0,0,0,0c0,0,0,0,0,0c0,0,0,0,0,0c0,0,0,0,0,0c0,0,0,0,0,0
		c0,0,0,0,0,0.1c0,0,0,0,0,0c0,0,0,0,0,0.1c0,0,0,0,0,0.1c0,0.9-1.3,3.2-1.3,3.2l1.9,2.1l3.4,2.1l6.4,1.7l1.9,0.8l1.7,0.8l-1.1,2.1
		l3-0.2l0.6,1.3h3l0.8-3.6l-1.9-0.4l2.7-2.8l-0.9-1l0.2-1.7l3.4-1.9l0.2-2.1l-2.3-0.2l-1.5,1.3v-1.9l3-0.2l0.9-2.3l0.8-6.6l-0.6-2.8
		l-0.1-2.7l-3.3,2.2l-3.9,0.2l-0.3-2.7l0.5-0.7l-1.2-0.8l-0.3-4.6l-0.5-0.8H557l-1-0.8v-3.3l-1.4-0.8l-1-0.5l-2.1-2.6l0.2-1.5h-2.5
		l-0.9-2.6h-3.6l-1.9-2.6l0.5-0.8l-1.2-0.7l-2.8,0.5l-1-0.7h-3.8l-0.4-1l-2.1-0.4H530.5z"/>
	<path inkscape:label="Var" class="st0" d="M496.6,453.2l-2.9,0.1l-1.4,1.4l-5.1-0.2l-4.4,3.2l-3.1-2.1l-4.8,1.5l-0.8,1.7l-3.4,2.6
		l-6.2-4.1l-5,1.6l-0.2,1.3l0.1-0.1l3.1,2.1l-4.1,2.8l-1.7,3.4l2.1,1.7l-0.2,3.6l3.3,3.1l-0.9,0.7l-3.8-0.2v1.4l1.7,0.8v0.5
		l-1.5,1.4l0.9,1h1.4l1.4,1.4l0.2,1l-1.7,1l-1.4,1.5l-0.2,3.8l0.5,0.7l3.4,1.5l0.9,3.8l2.1,0.4l1.9-1.3l3.4-2.1l5.9,0.6l-0.2,1.5
		l-1.9,0.9l4.5,0.2l-1.1-1.1l-0.4-2.5l2.5-1.7l2.8,0.9l1.1,0.4l0.9,1.1l1.3-0.9l0.4-2.5l1.5-1.3h4l1.1-1.7l2.6,0.8l3-1.3v-4.9
		l-4,0.2l3-1.9l1.5-2.1l0.4-3l5.5-0.8l3.1-3.4l-2.1-2.2v-1.2l-1-1l1.4-1.2l-0.3-1.9l-2.2-0.8h-1.2l-2.1-2.1l-0.4-3.6l-2.2-1
		l-2.2-0.2l-0.8-2.1L496.6,453.2z"/>
	<path inkscape:label="Alpes-Maritimes" class="st0" d="M502.6,422.9l-0.4,0.2l-2.6,1.4l-0.2,2.4l-1.9,1.5l-1,2.4l-0.7,4.4l2.1,3.1
		l0.2,2.6l1.2,0.4l3.4,3.2l3.2,2.9l-1.4,0.9l-2.1-1.4l-2.6,1.4l-0.7,0.8h-2.7l0.3,1.4l-0.8,1l0.7,1.7l-2.2,1.4l0.8,2.1l2.2,0.2
		l2.2,1l0.4,3.6l2.1,2.1h1.2l2.2,0.8l0.3,1.9l-1.4,1.2l1,1v1.2l2.1,2.2l0.2-0.2l0.2-4.3l3.8,0.8l1.3-1.7l1.9,0.4l0.2-5.9l4.4-0.4
		l3.8-3.4h3.4l0.2-2.1l3.4-2.1l-1.9-4.4l2.8-2.5l-0.6-2.8l4.2-1.3l1.1-4.1l-0.5-2.8l-1-1.7l-0.8-2.5l-2.8,0.2l-8.9,3.2h-2.8l-4.9-4
		l-4.9-1.3h-2.8v-3.4l-4-2.5V422.9z"/>
	<path inkscape:label="Hautes-Alpes" class="st0" d="M486.5,381.5l-1.7,0.8l-0.4,2.8l-3.4,0.4l-0.6-2.7l-1.1-1.1l-3.4,0.4l-1.3,1.1
		l-0.8,4l0.6,0.9l4,0.4l0.8,2.5l1.5,0.8v4.1l-3.6-0.2l-1.5,1.7l-4.3-0.8l-2.5,2.1L467,398l-2.5,1.9l0.9,1.7l-1.5,1.5h-4.7v2.3
		l1.5,0.8l-0.6,1.3l-3.2,1.3l-4,0.4l-1.1,3.6l-0.2,2.3l2.1,1.7l-2.1,2.5l-2.6-1.3l-3-0.2l-0.4,1.7l1.9,1.3l-2.3,1.5l0.8,3.2l6.4,1.7
		l1.1,2.5l1.9,0.4l-0.6,5.9l0,0l2.9-2.7h3.4l1.4,0.8l1.9-0.7l-2.9-3.2l-0.5-1.5l1-0.2l1.9,1.7h1.2l-0.2-2.8l-1.2-0.3l0.5-1.7
		l2.1-3.4l3.3-1.9l1.5-0.3v-1.7h1l1.9,1.5v1.2l3.2,2.1l0.9-0.4l-0.5-3.2h-0.9l0.9-1.2l3.6,0.2l1.9-1.4l2.9,1.5l6.1,0.2l1-2.6l0.7-1
		V413l2.6-0.2l1-2.1l2.9-1.7l2.1-3.1l2.5,0.1l1.8-1.9l2.1,0.2v-1.7l-2.6-1.3l-0.6-5.5l-2.1-0.8l-2.6,0.4l-4.9-2.5l-0.8-5.7l-2.8-0.9
		l-1-1.9l-1.2-2.7L486.5,381.5z"/>
	<path inkscape:label="Lozere" class="st0" d="M364,394.2l-5.3,1.9l-1.5,3.4l-3.4-2.3l-2.7,8.3l-2.7,6.3l4,4.9l-0.3,3.8l2.7,1.9v4.5
		l0.8,6.4l3.2,1.4l-0.3,2.1l4.5-0.8l1.6,0.8l-1,0.9l5.8,3.9l5-1l0.8-1.2l-0.7-1.7l2.1-0.5l2.9,2.7l5,0.5l2.2-3.4V434l1.4-1.5
		l-1.2-0.3v-3.9l-2.7-2.9l2.2-0.4l1.2-1l0.9-1.8l-0.9-0.6l0.5-4L385,414l-1.3-7l-4.8-6.1l-3.5,0.8l-0.8-2.6h-1.9l-0.4,2.3l-4.9,1.5
		L364,394.2z"/>
	<path inkscape:label="Cantal" class="st0" d="M330.1,366.6l-0.6,2.1l0.9,2.3l-1.1,1.3h-1.9l-1.9-2.1l-1.7-0.9l-0.2,5.3l-3.4,2.1
		l-2.5,3.4l0.6,3.4l-0.8,1.5l-1,3h-1.5l-1.5,1.9l1.1,1.1l0.8,1.9l-2.5,1.7l1,6.3l3.2,2.4l-2.4,5.6l2.4,1.1l-1.1,3.2l2.1,0.3l1.6-2.7
		h2.7l0.5,0.8h5.9l1.1-2.4l1.3-0.5l0.5-4.3h1.3v-4.5l5.4-4.6l0.5,0.8l0.5,3.5l3.8-0.5l0.8,5.4h1.8l0.5,5.4l1.7,2.1l2.7-6.3l2.7-8.3
		l3.4,2.3l1.5-3.4l4.8-1.8v-1.6l-1-1.5l-2.1-1.2l1-1.5l-0.9-0.8l1-0.3l1.2-1l-2.1-0.2l-1-1.4l-0.3-3.6l-1.2-1.2l-0.8-3.1H353
		l-0.8-2.4l-1.4-0.2l-0.7,1.4l-2.7-0.2l-2.6-3.9l-1-0.2l-2.1-1l-1.2,1.2h-3.1l-1.5-3.2L330.1,366.6z"/>
	<path inkscape:label="Pyrenees-Atlantiques" class="st0" d="M220,468.4l-2.7,1.5l-5.5-0.2l-0.5-0.8l-3.6,1.2L205,471l-2.1-1.5
		l-2.2,0.7l-0.7-0.9h-2.7l-1.7,0.9l-4.4-0.2l-2.4,1.9l-4.3-0.3l-0.8,1.2l-1-0.4l1.4-1.4l-2.4-1.9l-2.9,2.6l-5,0.3l-5.4-2.7l-0.8,1.4
		l-4.4,5.3l-3.4,1.3l-2.5,0.4v2.1l2.3,2.1l3.4,0.2l0.2,2.5l2.7,0.2l0.8-1.7l3.6,1.5l2.3,0.6l0.5,2.3l-1.3,1.1v3.6l-2.7,1.3l-0.2,1.7
		l1.7,1.9l3,0.9l0.6-2.8l1.7-1.9l-0.2,2.5l1.3,1.9h3.4l1.5,2.1l4.5,0.8l4.4,2.7h7.2l0.4,4l4.9,3.8l1.9,2.3l2.1-1.1l1.9-0.4l0.9,0.9
		l1.7-0.9l3.3-1.8l0.3-3.9l1.5-1.1l0.8-6.2l2.8,0.6l1.1-0.8l-1.3-2.7l5.1-4.4l3-6.8l1.9-2.5l-2.3-3.4l-1.5-2.3l2.1-1.9l-3.2-5.3
		l-5.1-0.4L220,468.4z"/>
	<path inkscape:label="Aveyron" class="st0" d="M338.7,395.3l-5.4,4.6v4.5H332l-0.5,4.3l-1.3,0.5l-1.1,2.4h-5.9l-0.5-0.8H320
		l-1.6,2.7l-0.6-0.1l-0.3,1.1l-1.2,1.4h-3.4l-0.7,0.9l-1.7-0.2l-3.1,3.4l-1-0.3l-2.2,1.9l0.7,3.4l1.7,2.6l-1.3,1.4l0.3,3.9l2.7,0.2
		l-1.5,3.1l1.2,3.1l1.5-0.9l0.7,1.5l2.2-2.2l3.3-0.2l3.2,2.4l5.7,1l2.1,3.6l2.9,1.4l1.5,3.9l-0.2,1.5l1.9,3.4v1.9l3.4,4.4l3.3,1.7
		l2.1-0.5l1-1.4l1.5,0.4l3.5,2.3h0h1.6h3.2l-0.3-5.6V456h1.6l2.9,1.6h2.9l-0.5-3.2l1.6-1.4l3.2-0.5v-2.7l3.5-1.6l-0.8-3.7h-2.9
		l-2.7-0.5l-0.5-2.1l2.1-0.5v-2.7l2.1-1.9L363,436l-4.5,0.8l0.3-2.1l-3.2-1.4l-0.8-6.4v-4.5l-2.7-1.9l0.3-3.8l-5.6-6.9l-0.5-5.4
		h-1.8l-0.8-5.4l-3.8,0.5l-0.5-3.5L338.7,395.3z"/>
	<path inkscape:label="Bouches-du-Rhone" class="st0" d="M421,450.1l-5.3,3l-1.4,10.2l-5.6-0.8l-1.6,4.3l1.3,1.9l-6.1,3.8l-1.7,3.9
		l6,0.3l8,0.6l1.5,1.5h-2.8l-1.9,3.2l8.1,1.7l6.4-1.1l-3.4-3.2l2.3-1.9l3.6,1.5l1.7,3.6l10.8,0.2l2.8-1.1l0.6,1.7l-3,2.6l4.2,0.2
		l-0.8,1.9l-1.1,1.3h9.3l4.5,1.5l0.5,0.6l0.2-3.8l1.4-1.5l1.7-1l-0.2-1l-1.4-1.4h-1.4l-0.9-1l1.5-1.4v-0.5l-1.7-0.8v-1.4l3.8,0.2
		l0.9-0.7l-3.3-3.1l0.2-3.6l-2.1-1.7l1.7-3.4l4.1-2.8l-3.1-2.1l-2.2,1.7l-5.1,1.2l-4.1-0.5l-7.4-3.1l-4.4,0.2l-3.8-1.7l-1.4-1.9
		L428,453l-6.8-2.9L421,450.1z"/>
	<path inkscape:label="Vaucluse" class="st0" d="M428.1,422.4l-2.7,0.2l-2.1,3.2l0.5,3.4l3.2,0.4l-0.5,1.5l-2.5,0.2l-2.8,2.8
		l-0.8-0.9l0.5-3.8l-1.1-1.3l-5.1,0.8l-1,2l0.5,0.3l3.2,5.3v4.3l5.6,5.6v2.4l-2.2,1.2l0.2,0.1l6.8,2.9l2.9,3.2l1.4,1.9l3.8,1.7
		l4.4-0.2l7.4,3.1l4.1,0.5l5.1-1.2l2.1-1.7l0.3-1.4l-3.9-4.4h-4.3V453l1.5-1.7v-1.9l-3.4-1.7l-0.3-2.8l1.9-0.8v-2.4l-2.1-0.4
		l-0.2-2.6l0-0.2l-1.7-0.1l-2.8-2.1l-0.8-2.5l-5.3-0.4l-4-0.4l-0.4-2.3l1.3-2.8l-2.5,2.1l-3.8-0.4l-0.8-1.3l2.6-3.6L428.1,422.4z"/>
	<path inkscape:label="Alpes-de-Haute-Provence" class="st0" d="M502.5,405.9l-2.1,3.1l-2.9,1.7l-1,2.1l-2.6,0.2v1.9l-0.7,1l-1,2.6
		l-6.1-0.2l-2.9-1.5l-1.9,1.4l-3.6-0.2l-0.9,1.2h0.9l0.5,3.2l-0.9,0.4l-3.2-2.1v-1.2l-1.9-1.5h-1v1.7l-1.5,0.3l-3.3,1.9l-2.1,3.4
		l-0.5,1.7l1.2,0.3l0.2,2.8H464l-1.9-1.7l-1,0.2l0.5,1.5l2.9,3.2l-1.9,0.7l-1.4-0.8h-3.4l-2.9,2.7l0,0l-0.1,1.1l-1.1-1.3l-1.5-1.3
		l-1,2.8l-1.7,1.5l-0.7-0.1l0,0.2l0.2,2.6l2.1,0.4v2.4l-1.9,0.8l0.3,2.8l3.4,1.7v1.9l-1.5,1.7v1.5h4.3l3.9,4.4l0,0.1l5-1.6l6.2,4.1
		l3.4-2.6l0.8-1.7l4.8-1.5l3.1,2.1l4.4-3.2l5.1,0.2l1.4-1.4l2.9-0.1l0.1,0l-0.7-1.7l0.8-1l-0.3-1.4h2.7l0.7-0.8l2.6-1.4l2.1,1.4
		l1.4-0.9l-3.2-2.9l-3.4-3.2l-1.2-0.4l-0.2-2.6l-2.1-3.1l0.7-4.4l1-2.4l1.9-1.5l0.2-2.4l2.6-1.4l0.4-0.2v-3.7l2.7-0.4l-1.5-1.3
		l-1.9-0.6l-0.9-2.5l0.8-1.7l3.4-3.6l-0.5-2.7l0.5-0.5L502.5,405.9z"/>
	<path inkscape:label="Gard" class="st0" d="M388.6,422.1l-0.9,1.8l-1.2,1l-2.2,0.4l2.7,2.9v3.9l1.2,0.3l-1.4,1.5v2.9l-2.2,3.4
		l-5-0.5l-2.9-2.7l-2.1,0.5l0.7,1.7l-0.8,1.2l-5,1l-5.8-3.9l-1.1,1v2.7l-2.1,0.5l0.5,2.1l2.7,0.5h2.9l0.8,3.7l-3.5,1.6v1.7l2.7,0.9
		v1.5l1.2,0.7l1-0.9h1.4l0.7,1.5h2.1l1-3.6h1.7l2.6-3.2l3.1,0.3l0.5,4.4l1.2,1.4l1.9-1l3.2,1.7l1.2,2.1l5.6,3.4l2.1,4.8v2.5
		l-3.6,2.1l-2.3,2.1l2.9,0.2v3.8l4.3-0.2l2.3,0.1l1.7-3.9l6.1-3.8l-1.3-1.9l1.6-4.3l5.6,0.8l1.4-10.2l7.5-4.3v-2.4l-5.6-5.6v-4.3
		l-3.2-5.3l-6.7-3.8l-0.5,2.9l-2.7,0.3l-0.8-2.9l-2.7,0.5l-0.5,3.8l-2.1-0.8l-4.5-3l-2.1,1.1v-5.4L388.6,422.1z"/>
	<path inkscape:label="Aude" class="st0" d="M318.9,477.7l-0.3,3.5l-3.5-1.1h-3.8l0.3-1.3l-1.9,0.3l-4,1.3l-1.3-2.4l-2.7,2.4
		l0.8,1.9l-3,1.3l-0.5,2.9l-2.4,1.1l2.1,2.4l-0.5,1.6l9.4,4.5l0.8,6.4v3.5l0.5,4.5h-4.8l-1.3,1.9l6.1,5.1l3.5-1.9l4.3,5.1l-0.6,0.1
		l0.8,0.5l7.7-3.8l-1.9-2.8l-0.2-3.2h17.9l-0.3-2.4l4.1-2.2l4.8,3.8l2.5,1.1l-0.2-5.4l0.2-6.2l-2.3,0.2l-1.9-2.8l1.5-2.5l3.2,3
		l2.8-2.3l1.9-1.9l0.2-2l-2.4-0.1l-0.8-2.7l-2.4-0.2l-2.2-3.3l-1.7,0.2l-2-1.2l-0.4-2.9l-1,0.5l0.5,2.1h-2.4l-0.2,3.4l-3.6,1.2
		l-1.7-3.6l-2.4,1.5l-2.1-1.5l-1-2.4l1.7-2.1l-0.8-2.2l-0.2,0.1h-5.6l-5.9-1.1H318.9z"/>
	<path inkscape:label="Herault" class="st0" d="M378.2,448.6l-2.6,3.2H374l-1,3.6h-2.1l-0.7-1.5h-1.4l-1,0.9l-1.2-0.7v-1.5l-2.7-0.9
		v1l-3.2,0.5l-1.6,1.4l0.5,3.2h-2.9l-2.9-1.6h-1.6v1.9l0.3,5.6h-3.2h-1.6l-1.1,2.1l-7,2.4l-2.7-1.8l-1.6,2.4l-0.8,2.7l2.9,2.7
		l-1.1,3.5l-4.1,1.3l0.8,2.2l-1.7,2.1l1,2.4l2.1,1.5l2.4-1.5l1.7,3.6l3.6-1.2l0.2-3.4h2.4l-0.5-2.1l1-0.5l0.4,2.9l2,1.2l1.7-0.2
		l2.2,3.3l2.4,0.2l0.8,2.7l2.4,0.1l0.1-1l6.8-2.1l0.8-1.7l5.3-0.2l1.7-2.1l10.2-8.1l6.4-4.5l2.6,0.2l2.3-2.1l3.6-2.1v-2.5l-2.1-4.8
		l-5.6-3.4l-1.2-2.1l-3.2-1.7l-1.9,1l-1.2-1.4l-0.5-4.4L378.2,448.6z"/>
	<path inkscape:label="Pyrenees-Orientales" class="st0" d="M344.3,506.9l-4.1,2.2l0.3,2.4h-17.9l0.2,3.2l1.9,2.8l-7.7,3.8l-0.8-0.5
		l-6.3,0.5l-0.8,1.6l-3.2,0.8l-2.1,1.9l-5.9,1.4l0.3,2l2.8,2.7l5.7,1.5l0.2,3.4l3,2.7l2.3-0.4l3.2-4l4-0.8l6.2,2.1l5.3,4.5l1.5-1.9
		h1.3l1.3,0.9l1.1-0.5l0.2-2.7l5.7-1.3l1.9-2.5l2.8-0.9h4l2.5,2.6l3,0.2v-3l-1.5-2.1l-2.7-1.1l-0.4-16.5l-2.5-1.1L344.3,506.9z"/>
	<path inkscape:label="Puy-de-Dome" class="st0" d="M343,323.8l-2.6,2.9l-0.2-1l-2.1,0.2v1.5l-1.2,0.3l-1.2,2.9l-1.5,0.7l-2.9-2.2
		l0.3,4.4l1.5,1.9l0.8,3.6l-2.3,1.7l-0.5,2.7l-2.1,1.1l-3.6,2.1l0.4,1.7l4.4,4.4l0.4,2.7l-1.7,2.8v2.7l1.1,1.3l0.6,3.2l-0.4,1.3
		l5.8,1.7l1.5,3.2h3.1l1.2-1.2l2.1,1l1,0.2l2.6,3.9l2.7,0.2l0.7-1.4l0.8,0.1l0.8-1.1l3.4-0.5l1.9-1.5l2.1-0.2v-1.2l1.4-0.7l0.4,0.8
		l0.8-0.5l1.4,0.9l2.4-0.2l2.1-0.8l1.4,1.2h1.5l1.2,2.2l1.9,0.8l1-2.4l1.4,1.2l2.9,0.2l1-2.1l1.7,1.7l2.4,0.7l0.8-0.7l-1.5-0.5
		l-0.6-2.3l3.6-3.4l-1.7-6.2l-4.9-3.2l-2.1-4.9l-2.3-3l0.6-4.2l1.7-1.7l-3-2.5l0.1-0.8l-2.7-1.1l-0.8-2.1l-2.9,0.2l-2.2-0.5
		l-0.3-2.4l-1.7-0.8l-2.2,1.4l-2.6-0.5l-1.7,0.2l-5.8-0.8l-4.8-2.8l-0.4-1.4l-2-2.2l1.4-1.9l-0.5-1H343z"/>
	<path inkscape:label="Hautes-Pyrenees" class="st0" d="M226.9,468.1l-1.9,1l0.3,0l3.2,5.3l-2.1,1.9l1.5,2.3l2.3,3.4l-1.9,2.5
		l-3,6.8l-5.1,4.4l1.3,2.7l-1.1,0.8l-2.8-0.6l-0.8,6.2l-1.5,1.1l-0.3,3.9l0.5-0.3l3.2,1.9l3.8,2.8l0.4,2.3l3,2.5h2.5l6.2-2.7l2.6,3
		l3.6,1l1.3-2.3l1.7,0.8l3.7,0.2l-0.2-10.2h1.9l1.7,0.8l1.2-1.2l-0.2-1.9l2.4-1.4l-0.8-3.6l-1-0.9l-2.1,0.7l1-1.7l-0.5-2.2l-3.1-2.2
		l0.2-1.5l1.7-2.9l2.2-0.8v-1.2l1.4-2.1l0.9-1.3l-3.4-1.8h-4.6l-0.7-1.4H243l-0.7-1.5h-2.2l-0.7,0.7h-2.6l-0.2-1.5l-2.1-1.4l0.7-0.7
		l0.3-1.7l-0.5-0.5l-1-2.8l-2.2-0.3l-2.2-1.2l0.2-3.2H226.9z"/>
	<path inkscape:label="Landes" class="st0" d="M188.7,415.7l-6,3.1l-1.5,0.1l-3.4,18l-4.4,16.6l-1.3,6.4l-1.1,4.5l-2.8,4.8l5.4,2.7
		l5-0.3l2.9-2.6l2.4,1.9l-1.4,1.4l1,0.4l0.8-1.2l4.3,0.3l2.4-1.9l4.4,0.2l1.7-0.9h2.7l0.7,0.9l2.2-0.7l2.1,1.5l2.8-0.8l3.6-1.2
		l0.5,0.8l5.5,0.2l2.7-1.5l-1.3-2.3l1.3-3.6l1.9-2.5l-0.6-3.2l1.5-1.5l-2.2-3.8l1.9-2.3l2.1-0.4l1.9,0.8l2.7-2.3l0.9,2.8l0.9,1.3
		l2.1-0.6l-0.2-2.5l0.6-1.3l-0.5-1.2l0.5-3.8l2.1-2.1l-1-1.2l-2.2-0.2l-2.6-1l-3.8,0.3l-0.7-4.1l-2.4-2.9l-1-0.3l0.4,3.4v1l-3.3,0.2
		l-3.4-1.2l-0.7-4.3l-2.4-2.6l-1.7-0.2l-0.2-1.5l-1.9-1.2l-3.1-0.8l0.8-1v-1l-1-0.8l-1.2-1l-3.4,0.5l-2,1.7l-1.4,0.2l-2.2-1.5
		l-3.3,1.4l-1.5-1l1.4-1.7l0.2-2.2L188.7,415.7z"/>
	<path inkscape:label="Gironde" class="st0" d="M190.1,358.4l-3,4.5l-0.9,15.9l-2.5,16.1l-1.7,12.5l-0.2,3.2l1.3-4.4l2.6-3.4
		l3.8,3.4l0.4,1.1l1.1,1.5l-4.7,0.2l-0.8-1.1l-1.9,0.8l-0.4,2.8l-2.1,2.8v4.3l0,0.2l1.5-0.1l6-3.1l3.2,1.2l-0.2,2.2l-1.4,1.7l1.5,1
		l3.3-1.4l2.2,1.5l1.4-0.2l2-1.7l3.4-0.5l1.2,1l1,0.8v1l-0.8,1l3.1,0.8l1.9,1.2l0.2,1.5l1.7,0.2l2.4,2.6l0.7,4.3l3.4,1.2l3.3-0.2v-1
		l-0.4-3.4l1,0.3l1.9,2.4l3-0.5l1.4-1.4l-0.2-1.9l-1.2-1l0.4-1.9h1.9l1.9-1.2l-0.8-1.7l-0.5-2.6l1.4-2.4l2.9-4.4l1.7-2.1l1.5-0.5
		l0.3-1.7l-2.1-0.2l-0.8-1.9l0.7-1.9l2.4-0.5l1.7-0.5l2-0.3l-0.1-0.1l-0.2-3.8l1.9-1.4l-2.4-1.5l-2.4,2.9l-5.8,0.2l-0.5-1.4
		l-1.7-0.8l1.4-1.7v-1.9l-0.7-1v-1l1.7-1l0.5-3.1l1-2.8l-1-1.5h-1.9l-1-1.2l-1,2l-1.9-1.3l-2.7,1.3l-2.3-0.4l-4.3-4.4l-2.7-0.2
		l-0.8-6.1l-4.9-0.6l-0.2-2.8l-0.9,0.9H204l0.3,1.2l1.3,5.5l0.4,5.5l-0.9,1.5l-0.9-4.5l-2.7-10.4l-9.7-8.7l0.2-4L190.1,358.4z"/>
	<path inkscape:label="Dordogne" class="st0" d="M256.5,353.8l-1.7,3l-2.7,0.4l-0.2,4.5l-8.9,6.1l-0.2,6.6l-3.4,3.4l-1.9,1.7
		l-3.8-0.4l-2.1,3.6l-0.5,1.2l1,1.2h1.9l1,1.5l-1,2.8l-0.5,3.1l-1.7,1v1l0.7,1v1.9l-1.4,1.7l1.7,0.8l0.5,1.4l5.8-0.2l2.4-2.9
		l2.4,1.5l-1.9,1.4l0.2,3.8l2.8,1.9l0.3,3.6l2.9,1l1.7-1.5h3.8l2.1-1.7l1.2,0.2l0.3,1.4h3.8l0.8-1l1.4,0.2l1.5,1.7v1.2l-1.4,0.8
		l0.5,1.2l1.9,0.2l2.4-2.2h2.1l1.4,1.5l3,1.2l0.2-0.5l1.7-1.7l0.2-2.8l4.1-0.4l2.7-3.8l-1.1-0.4l-0.2-2.1l3.2-0.4l0.2-1.9l1.5-1
		l1.7-3l-1.7-1.9v-2.1l1.3-1.1l-1.7-2.7l0.2-4.1l-4.1,0.2l-1.7-1.1l1.5-1.9l-2.1-1.7l1.5-1.9l-1.5-0.8v-2.6l3.8-3.4l-2.1-1.7
		l-1.1-2.8l-4-0.6l-1.3-0.9l2.8-1.3l-0.9-1.3l-4.1-0.6l-1-3.8l-6.1-0.6l-1.3,1.9l-1.3,0.4l-1.7-2.3l0.8-2.1l-1-1.9L256.5,353.8z"/>
	<path inkscape:label="Lot-et-Garonne" class="st0" d="M242.4,405l-2,0.3l-1.7,0.5l-2.4,0.5l-0.7,1.9l0.8,1.9l2.1,0.2l-0.3,1.7
		l-1.5,0.5l-1.7,2.1l-2.9,4.4l-1.4,2.4l0.5,2.6l0.8,1.7l-1.9,1.2h-1.9l-0.4,1.9l1.2,1l0.2,1.9l-1.4,1.4l-3,0.5l0.5,0.5l0.7,4.1
		l3.8-0.3l2.6,1l2.2,0.2l1,1.2l-2.1,2.1l-0.5,3.8l0.5,1.2l0.7-1.5l2.2,1.9l3-3l1.3,1.9l3.2-0.6l3.4-0.4l1.5-2.7l5.7-0.5l2.8,2.8
		l1-0.9l1.9-0.6l-0.8-2.6l2.8-0.8l3.6-0.8l-0.8-2.3l1.1-1.3l0.9-3.6l-2.1-2.3l1.3-4.3l2.8,1.7l4.2-0.8l-1.9-4.2l-1.5-5.7l3.8-0.2
		l0.8-2l-3-1.2l-1.4-1.5h-2.1l-2.4,2.2l-1.9-0.2l-0.5-1.2l1.4-0.8v-1.2l-1.5-1.7l-1.4-0.2l-0.8,1h-3.8l-0.3-1.4l-1.2-0.2l-2.1,1.7
		H250l-1.7,1.5l-2.9-1l-0.3-3.6L242.4,405z"/>
	<path inkscape:label="Lot" class="st0" d="M293,389.4l-4,1.9l-0.6,0.1l0.1,0.2l-1.3,1.1v2.1l1.7,1.9l-1.7,3l-1.5,1l-0.2,1.9
		l-3.2,0.4l0.2,2.1l1.1,0.4l-2.7,3.8l-4.1,0.4l-0.2,2.8l-1.7,1.7l-0.9,2.5l-3.8,0.2l1.5,5.7l1.6,3.5l2.4-0.1l0.2,1l-1.4,1.5l1,2.1
		h1.5l1.7,1.9h1.5l1.2-1.4l0.3,0.4v1.7l0.5,2.2l3.6,0.2l2.9-3.1l1.5-0.2l0.5,0.8l0.8,1.9h1.4l0.5-3.4l2.9,0.4l1.7-2.1l2.8,0.7
		l4.1-1.9l0,0.4l1.3-1.4l-1.7-2.6l-0.7-3.4l2.2-1.9l1,0.3l3.1-3.4l1.7,0.2l0.7-0.9h3.4l1.2-1.4l0.3-1.1l-1.5-0.2l1.1-3.2l-2.4-1.1
		l2.4-5.6l-3.2-2.4l-1.1-7l-2.9-0.8l-2.1,2.1l-1.1-1.9l-3.2,3.2l-2.1,0.3l-3.7-5.3L293,389.4z"/>
	<path inkscape:label="Ariege" class="st0" d="M283.1,485.4l-1.2,0.8l-0.5,1l2.4,1.7l0.7,1.2l-0.5,1l-4.1,0.4l-1.2,1.7l0.2,0.5
		l1.5,0.5l0.9,1.2l-1,1.7l-1.2-0.2l-1.9-1.7l-2.2-0.7l-2.2,0.2l-3.9,2.4l0.2,3.3l1,0.7l-0.7,2.5l-4.5,1.2l-1.7,2.1v3.4l0.7,1
		l-1.6,1.5l1,0.6l5.8,1.1h2.5l3.2,4.2l8.1-0.4l3.2,5.1l2.8-1.1l8.3,1.1l0.6,3.5l5.9-1.4l2.1-1.9l3.2-0.8l0.8-1.6l7-0.5l-4.3-5.1
		l-3.5,1.9l-6.1-5.1l1.3-1.9h4.8l-0.5-4.5v-3.5l-0.8-6.4l-9.4-4.5l0.5-1.6l-1.8-2l-1.5,0.6l-2.1,0.3l-3.8-1.7l-1-0.3l1.5,1.9
		l-0.7,1.5l-3.3-0.3l-0.2-1.7l-1.9-2.6L283.1,485.4z"/>
	<path inkscape:label="Gers" class="st0" d="M254.6,442.3l-5.7,0.5l-1.5,2.7l-3.4,0.4l-3.2,0.6l-1.3-1.9l-3,3l-2.2-1.9l-1.3,2.8
		l0.2,2.5l-2.1,0.6l-0.9-1.3l-0.9-2.8l-2.7,2.3l-1.9-0.8l-2.1,0.4l-1.9,2.3l2.2,3.8l-1.5,1.5l0.6,3.2l-1.9,2.5l-1.3,3.6l1.5,2.7
		l4.8,0.3l1.9-1h2.9l-0.2,3.2l2.2,1.2l2.2,0.3l1,2.8l0.5,0.5l-0.3,1.7l-0.7,0.7l2.1,1.4l0.2,1.5h2.6l0.7-0.7h2.2l0.7,1.5h2.4
		l0.7,1.4h4.6l3.4,1.8l0.3-0.4l1.9-1l3.4-4.4l6.4,0.5l2.7,1.9l0.9-1.2l1.4-4.1l1.7-3.9l3.6-1.5l1.7-0.7l-0.5-1.5l-1.7-0.2l-0.7-1.7
		h-1.4l-2.2-2.2l0.2-1.5l-2.9-2.9l-0.5-1.8l-1.9,0.8l-0.5-1l1.2-1.9l-1.4-1.4v-2.4l-1.2-1.2l-3.8-0.2v-2.2l2.1-1.5v-1.7l2.2-1
		l-1.2-0.7l-1.4,0.7h-2.8l-0.8-0.8l-0.5,0.2l-1,0.9L254.6,442.3z"/>
	<path inkscape:label="Haute-Garonne" class="st0" d="M290.6,452.5l-2.8,1l-0.8,1.4l-1-1.2l-1.9-0.2l-0.4,1.7l-1.2,0.5l1.7,0.9
		l-1.2,1.9l-4.3,1.2l-1.9-2.2h-1.7l-1.4,0.8h-5l-0.5,0.2l0.5,1.8l2.9,2.9l-0.2,1.5l2.2,2.2h1.4l0.7,1.7l1.7,0.2l0.5,1.5l-1.7,0.7
		l-3.6,1.5l-1.7,3.9l-1.4,4.1l-0.9,1.2l-2.7-1.9l-6.4-0.5l-3.4,4.4l-1.9,1l-1.2,1.7l-1.4,2.1v1.2l-2.2,0.8l-1.7,2.9l-0.2,1.5
		l3.1,2.2l0.5,2.2l-1,1.7l2.1-0.7l1,0.9l0.8,3.6l-2.4,1.4l0.2,1.9l-1.2,1.2l-1.7-0.8h-1.9l0.2,10.2l7.7,0.5l0.4-9.3l2.6,0.4l3.9,2.3
		l1.6-1.5l-0.7-1v-3.4l1.7-2.1l4.5-1.2l0.7-2.5l-1-0.7l-0.2-3.3l3.9-2.4l2.2-0.2l2.2,0.7l1.9,1.7l1.2,0.2l1-1.7l-0.9-1.2l-1.5-0.5
		l-0.2-0.5l1.2-1.7l4.1-0.4l0.5-1l-0.7-1.2l-2.4-1.7l0.5-1l1.2-0.8l1.2,0.3l1.9,2.6l0.2,1.7l3.3,0.3l0.7-1.5l-1.5-1.9l1,0.3l3.8,1.7
		l2.1-0.3l1.5-0.6l-0.4-0.4l2.4-1.1l0.5-2.9l3-1.3l-0.8-1.9l2.7-2.4l1.3,2.4l4-1.3l0.8-0.1l0.1-1.2v-2.4l-2.1,0.4l-2.6-0.7l-2.2-2.7
		l-0.8-1.2l-4.4-1.9l-1-1.5l1.4-0.5v-1.9l-1.4-1.5l-1.7-2.8l-0.2-2.4l-0.5-0.3l-2.1-2.4l-0.8-2.5L290.6,452.5z"/>
	<path inkscape:label="Tarn" class="st0" d="M315.6,437.4l-3.3,0.2l-2.2,2.2l-0.7-1.5l-1.5,0.9l-0.2-0.4l-0.9,0.9l-2.7,1l-2.2,1.4
		l-5.8,0.7l-0.7,2.9h2.2l-2.2,2.1l-1,1.9h-3.2l1.7,1.9l-1,1.6l0.3,0.1l0.8,2.5l2.1,2.4l0.5,0.3l0.2,2.4l1.7,2.8l1.4,1.5v1.9
		l-1.4,0.5l1,1.5l4.4,1.9l0.8,1.2l2.2,2.7l2.6,0.7l2.1-0.4v2.4l-0.1,1.2l1.1-0.2l-0.3,1.3h3.8l3.5,1.1l0.3-3.5h1.6l5.9,1.1h5.6
		l4.3-1.3l1.1-3.5l-2.9-2.7l0.8-2.7l1.6-2.4l2.7,1.8l7-2.4l1.1-2.1l-3.5-2.3l-1.5-0.4l-1,1.4l-2.1,0.5l-3.3-1.7l-3.4-4.4v-1.9
		l-1.9-3.4l0.2-1.5l-1.5-3.9l-2.9-1.4l-2.1-3.6l-5.7-1L315.6,437.4z"/>
	<path inkscape:label="Isere" class="st0" d="M438.7,342.4l-1.2,1.5l-1.2,3.7l-2.5,1.2l-2.7-2.5h-1.8L429,349l2.7,2.3l-4.1,5.3
		l-5.4,1.2l-4.1,1.5l2.7,2.7l0.6,1.2l-4.1,2.1l-0.4,6l-0.1,0.1l1.1,2.4l3.3,1l2.3-0.8l2.7-1.8l3.5,2.9h2.9l2.1,2.9l-0.8,2.1l0.4,2.9
		l-1,2.9l0.4,1l1.4-0.4l3.3,1l4.3,1.2l1.8-1.2l0.8-1.4h0.6l0.2,15.4l1,1h2.7l2.5,1.5l1.8,1.5l1.9,0.2l1.2,1l3.4,0.4l0.2-0.6
		l-1.5-0.8v-2.3h4.7l1.5-1.5l-0.9-1.7l2.5-1.9l1.7,0.8l2.5-2.1l4.3,0.8l1.5-1.7l3.6,0.2v-4.1l-1.5-0.8l-0.8-2.5l-4-0.4l-0.6-0.9
		l0.8-4l1.3-1.1l-1.1-1.5l-2.1-1.2l-1.2,1.2l0.4-1.7v-1.6l-1.7-1.7l0.8-3.9l1.8-1l-0.2-2.7l-3.9-3.9h-1.5l-1,1.4l-2.5-3.3l-1.5,0.2
		l-1.2,2.7l0.8,1.6l-0.6,0.6l-1.6-1.2l-4.8-1l-2.2-4.1v-1.7l-2.3-2.5l-0.2-1.1l-7.6-9.2l-0.8-2.7l-1.6-1.5L438.7,342.4z"/>
	<path inkscape:label="Ardeche" class="st0" d="M416.7,371.2l-4.4,2.6l-0.8,3.7l-3.3,0.6l-1.8,0.5l0.1,0.1l-1.1,4.5l-2.7,1.1
		l-1.1,1.9l0.8,2.5l0.5,1.3h-2.8l-0.2,3.6l-3,0.2l-1.5,4.7h-4.5l-4.9,3.6l-2.7,4.3l0.5,0.6l1.3,7l3.2,3.5l-0.5,4l4,2.4v5.4l2.1-1.1
		l4.5,3l2.1,0.8l0.5-3.8l2.7-0.5l0.8,2.9l2.7-0.3l0.5-2.9l6.1,3.4l1-2l2.6-0.4l0.2-4l-0.6-0.8l-0.8-0.2V422l0.6-1.5l-1-1.6l0.6-3.7
		l2.5-2.9v-4.1l-1-4.8l1.8-0.4l0.4-2.1l1.8-3.5l1-2.7l-1.6-4.1l-1-3.3l-1.5-5.7v-7.7l-1-0.3L416.7,371.2z"/>
	<path inkscape:label="Drome" class="st0" d="M426.1,372l-2.7,1.8l-2.3,0.8l-2.3-0.7v7.7l1.5,5.7l1,3.3l1.6,4.1l-1,2.7l-1.8,3.5
		l-0.4,2.1l-1.8,0.4l1,4.8v4.1l-2.5,2.9l-0.6,3.7l1,1.6l-0.6,1.5v1.5l0.8,0.2l0.6,0.8l-0.2,4l2.5-0.4l1.1,1.3l-0.5,3.8l0.8,0.9
		l2.8-2.8l2.5-0.2l0.5-1.5l-3.2-0.4l-0.5-3.4l2.1-3.2l2.7-0.2l2.6,2.5l-2.6,3.6l0.8,1.3l3.8,0.4l2.5-2.1l-1.3,2.8l0.4,2.3l4,0.4
		l5.3,0.4l0.8,2.5l2.8,2.1l2.5,0.2l1.7-1.5l1-2.8l1.5,1.3l1.1,1.3l0.8-7l-1.9-0.4l-1.1-2.5l-6.4-1.7l-0.8-3.2l2.3-1.5l-1.9-1.3
		l0.4-1.7l3,0.2l2.6,1.3l2.1-2.5l-2.1-1.7l0.2-2.3l1.1-3.6l4-0.4l3.2-1.3l0.3-0.8l-3.4-0.4l-1.2-1l-1.9-0.2l-1.8-1.5l-2.5-1.5h-2.7
		l-1-1l-0.2-15.4h-0.6l-0.8,1.4l-1.8,1.2l-4.3-1.2l-3.3-1l-1.4,0.4l-0.4-1l1-2.9l-0.4-2.9l0.8-2.1l-2.1-2.9h-2.9L426.1,372z"/>
	<path inkscape:label="Correze" class="st0" d="M310.7,351l-0.8,2.1l-3.1,0.6l-1.2,2.1h-1.5l-2.1-0.6l-1.5,2.5l-2.2,0.2l-1.5,2.7
		h-1.8l-1.5,1.5l-3.7-0.4l-1.2,2.1l-1.4-0.2l-2.5,3.1l-2.3-0.8l-1.1,2.1l0.8,2.1l2.1,1.7l-3.8,3.4v2.6l1.5,0.8l-1.5,1.9l2.1,1.7
		l-1.5,1.9l1.7,1.1l4.1-0.2l-0.2,4.1l1.6,2.5l0.6-0.1l4-1.9l4.8,2.1l3.7,5.3l2.1-0.3l3.2-3.2l1.1,1.9l2.1-2.1l2.9,0.8l0.1,0.6
		l2.5-1.7l-0.8-1.9l-1.1-1.1l1.5-1.9h1.5l1-3l0.8-1.5l-0.6-3.4l2.5-3.4l3.4-2.1l0.2-5.3l1.7,0.9l1.9,2.1h1.9l1.1-1.3l-0.9-2.3
		l0.9-3.4l-0.6-3.2l-1.1-1.3v-2.7l1.7-2.8l-0.4-2.7l-0.4-0.4l-1.9,1.5h-3.7l-1.2,1.8h-2.3l-1.8-1.8l-0.8-1.2h-4.7l-1-1.4H310.7z"/>
	<path inkscape:label="Creuse" class="st0" d="M301.4,312.5l-1.1,3l-3.4-0.2l-0.8-0.4l-2.3,0.2l-1.7-1.1l-3.3,3.8l0.1,2.8l-2.3,4.5
		l0.4,2.3l2.5,0.6l1.7,4.1l1.6,1.7l-0.6,7.8l3.5-1l1.5,1.8l-2.3,1.8v1.9l1.8,0.2l3.3-0.2l1-1.5h0.8l-0.4,2.5l2.7,1.2l2.5,1.7v1h-1.5
		l0.4,2.5l1,0.6l0.2-0.4l3.1-0.6l0.8-2.1h1.5l1,1.4h4.7l0.8,1.2l1.8,1.8h2.3l1.2-1.8h3.7l1.9-1.5l-3.9-3.9l-0.4-1.7l3.6-2.1l2.1-1.1
		l0.5-2.7l2.3-1.7l-0.8-3.6l-1.5-1.9l-0.4-5.9l-2.1-4.9l-2.1-0.8l-1.5-2.7l-1.3,1.7l-1.3-1.7v-2.3l-2.3-3.2l-6.2,0.8l-3.6-0.9
		L301.4,312.5z"/>
	<path inkscape:label="Haute-Vienne" class="st0" d="M285.3,315.4l-1.7,1.7l-4.8-0.4l-0.5-0.1l-3.6,0.7l-2.1,1.7v2.3l-4.1,0.2
		l-2.5,2.8l-1.5,1.1l1.3,1.5l-0.2,5.1l-0.9,1.7l1.5,1.7l2.6,0.2l0.6,2.6l0.2,1.7l-3.4,0.8l-1.7,0.6l0.4,4.7l-2.3,1.5l-1.9,0.6
		l-0.9,2.7l-1.5,0.2l-0.6,2.9l4.4,0.2l1,1.9l-0.8,2.1l1.7,2.3l1.3-0.4l1.3-1.9l6.1,0.6l1,3.8l4.1,0.6l0.9,1.3l-2.8,1.3l1.3,0.9
		l4,0.6l0.3,0.8l1.1-2.1l2.3,0.8l2.5-3.1l1.4,0.2l1.2-2.1l3.7,0.4l1.5-1.5h1.8l1.5-2.7l2.2-0.2l1.5-2.5l2.1,0.6h1.5l1-1.7l-1-0.6
		l-0.4-2.5h1.5v-1l-2.5-1.7l-2.7-1.2l0.4-2.5H301l-1,1.5l-3.3,0.2l-1.8-0.2v-1.9l2.3-1.8l-1.5-1.8l-3.5,1l0.6-7.8l-1.6-1.7l-1.7-4.1
		l-2.5-0.6l-0.4-2.3l2.3-4.5l-0.1-2.8l-0.5,0.6L285.3,315.4z"/>
	<path inkscape:label="Charente" class="st0" d="M253.1,329l-1.6,1.2l0.2,2.7l-1,0.8l-2.9-1.7l-2.9,1l-3.3,0.2l-2.5-3l-0.8,0.2
		l-3.3,1.6l-2.5,0.6v1.4l-1.4,1.7l0.4,1l-1.8,1l-1.6,6l-0.4,3.9l-1.4,0.6l-2.1-0.2l-0.4-1h-2.3l-1.2,1h-2.7l-2.3,1.2l1.7,0.6
		l0.2,4.3l0.8,0.2l-1.5,1.7l1.7,1l2.2,2.1l1.2,2.1l1.5,1.4l-0.4,2.1l-0.8,0.8l1.2,1.2v1.5l-2.5,2.1l1,0.8l1.5,0.4v0.4l-2.1,0.8
		l0.2,1l1.2,0.6l3.9-0.6l1.7,1.8l1.2,1.7l4,2.7l0.6-1l3.8,0.4l1.9-1.7l3.4-3.4l0.2-6.6l8.9-6.1l0.2-4.5l2.7-0.4l1.7-3l1.1,0l0.6-2.9
		l1.5-0.2l0.9-2.7l1.9-0.6l2.3-1.5l-0.4-4.7l1.7-0.6l3.4-0.8l-0.2-1.7l-0.6-2.6l-2.6-0.2l-1.5-1.7l0.9-1.7l0.1-1.5l-1.7-0.8h-3.3
		l-1.5,1.6l-3.5,1.5l-1.2-1.2L253.1,329z"/>
	<path inkscape:label="Deux-Sevres" class="st0" d="M229.3,275.3l-5.1,0.2l-4.7,0.9l-5.1,0.4v2.6l-2.6,1.7l-5.9-1.3l-4,1.7l1.9,2.7
		v2.3l4.5,3.8l-1.1,2.5l3,3.4l-1.3,1.7l1.9,2.8l0.6,5.3l-1.1,1.5l1.3,2.3l-1.3,2.5l0.2,1.5l1.5-1.1l1.9,1.9l-2.6,1.7l-0.9,1.1
		l-2.1,0.6l-2.5,1.1l-0.2-0.2l0.1,2.8l2.1,2.2v1.2l3.1,2.3l3.9,0.2l2.7,3.5l4.3-0.4l3.5,2.5l2.7,1.2l0.4,2.1l1.5,1.4l1.8-1l-0.4-1
		l1.4-1.7v-1.4l2.5-0.6l3.3-1.6l3.5-0.6l0.6-1.9l-2.9-0.8l-1.4-2.3l1-2.5l1.2-1.5v-3.1l-1.2-0.8l-1.6,0.8v1l-0.8,1.2l-1.6-1.8
		l-0.2-1.2l0.6-1.4l-1.5-1v-4.3l-0.8-0.2v-1.5l1.2-2.1l0.2-1l0.8-2.2l-0.6-1.5l-2.1-0.8l2.1-3.1l0.6-1.6v-1l-1.5-1.7V293l0.8-1.5
		l-0.6-1l1.2-1.4l-1-2.3l-0.6-3.3l-0.2-2.1l-1.6,0.2l-0.3-4.7l-0.4,0.7l-1.3-1.1L229.3,275.3z"/>
	<path inkscape:label="Cotes-d&apos;Armor" class="st0" d="M120.9,172.4l-1.7,1.3l-4.3,0.5l-1,1.3l-3-2.3l-4,2.7l1.5,2.1l-2.6,3.6
		l-0.1-0.1l-1.1,5.1l2.3,0.2l-0.2,2l1.7,1.1l-1.6,1.6l-1.1,0.8l0.2,1.8l2.4,0.8l-2.2,0.6v2.3l1.4,1.9l0.3,5.5l-0.9,0.9l0.8,2.8
		l3,0.8l0.3,1.5l1.9,0.2l1.6-1.1l0.9,0.9l3.6,1.6l3-1.6l0.8-1.5l2.5-0.2l2.8,2.5l2.7-0.6l2.3,2.4h1.1l1.1,1.4h2.2l0.8-1.1l0.9,2
		l2.4,0.9l3-1.9v-2l2.2-0.8h1.4l1.7,3.1l3.8,0.3l1.9-2.4l2-4.4l2.7-0.9l1.4-2l1.4,1.4l3-0.6l0.9-8.6l0.9-3.4l-0.9-1.9l-1.6-0.6
		l-1.1-5.7l-1.2,1.4l-3.6-0.4l-0.4,2.1l-2.3,0.2l-0.2-2.6l-1.9-0.6l-1.3,1.5v-3.8l-2.3,1.7l-3.4-0.6l-1.1,2.3l-7,3.8v1.9h-1.5v-3.4
		l-4-1.9l0.4-3.4l-3.6-2.6v-3.2l-2.7-0.6l0.2-3l-2.1-0.2l0.2-2.1h-3.8l-0.6,1.9L120.9,172.4z"/>
	<path inkscape:label="Finistere" class="st0" d="M92.7,178.1l-2.1,2.3l-2.3-0.9l-4.2,0.4l-0.8,1.9l-2.5,0.6l-0.4-2.1l-4.3,0.6v1.3
		l-3,0.2l-1.3-0.9l-1.5,0.8l-0.4,2.3l-5.1,0.2l-2.7,3.2l2.3,1.7l-3,2.5l0.9,1.7l-0.8,4.1l3,0.4l1.1-1.1l0.6,0.8l7.2-0.9l4.7-3.4
		l-4.1,4l0.4,1.9l3.8-1.7l-0.8,2.7l4.2,0.2l-0.2,1.1l-4.5-0.2l-3.6-0.9l-4.4-2.1l-2.6,3l3.4,1.1l-0.2,5.1l0.9-0.8l2.1-3.2l4,2.3
		l1.9,0.4l0.8,3l-1.1,2.1l-2.5-0.2h-2.3l-3.8,0.6l-6.4,0.4l-1.3,1.7l1.9,1.1l2.1-0.2l1.7,1.5l2.5-0.2l4,4.5l0.9,4.9l-1.3,2.7l4,0.8
		l4.4-0.2l0.9-1.7l-1.7-2.3l1.7,0.8l1.7-0.2l3,1.7l1.9-0.4v-3.2l0.8,3.2l2.5,4l5.3,0.4l0.2-1.1l1.3,1.9l3.2,0.6h2.5l0.2,0.2l0.9-3.7
		h2.2l1.1-1.7h1.4l0.2-2.8l0.8-0.9l-1.5-2.1l-0.9,1.1l-2.4-1.9l-4.8-0.8l-0.8-2.8l-1.4-3.6l-0.2-1.4l2.3-1.9h2.2l3.1-1.5l-0.7-2.4
		l0.9-0.9l-0.3-5.5l-1.4-1.9v-2.3l2.2-0.6l-2.4-0.8l-0.2-1.8l1.1-0.8l1.6-1.6l-1.7-1.1l0.2-2l-2.3-0.2l1.1-5.1l-3.1-1.8l-5.3,0.2
		v3.8h-1.5l-0.4-1.7l-2.3,0.4L92.7,178.1z"/>
	<path inkscape:label="Ille-et-Villaine" class="st0" d="M165.9,184.7l-1.8,2.1l1.1,5.7l1.6,0.6l0.9,1.9l-0.9,3.4l-0.9,8.6l-3,0.6
		l-1.4-1.4l-1.4,2l-2.7,0.9l-2,4.4l-1.2,1.6l0.5,2l-0.8,3.1l-1.4,1.3v1.2l0.9,0.3h2.7l2.3,1.4l1.6,2.8l-1.4,1.9l0.5,1.8h2l0.2,1.9
		l-1.6,1.9l-1.7,0.8l1.1,0.6l0.3,0.9l-1.7,1.4l2,3.8l3.8-2l11.7-0.6l0.8-2.1l1.9-1.9l4.1-0.6l0.2-2.1l2.8,0.4l1.7,2.3l3.8,0.9
		l0.7-1.5l1-3.4l2.5-6.1l1.3-0.8l3.2,0.4v-5.1l-1.3-1.3v-5.5l-0.6-1.9v-3l1.9-1.9v-3.8l-0.9-0.8l0.2-5.3l-1.5-0.8h-2.3l-1.9-1.5
		l-2.1,2.5l-1.7,0.2l-1.5,2.1l-1.5-0.4l-3.2-2.8l-1.1-3.6l-0.6-2.4h-9.3l-3.4-2.1l2.3-3L165.9,184.7z"/>
	<path inkscape:label="Loire-Atlantique" class="st0" d="M182,233.1l-0.2,2.1l-4.1,0.6l-1.9,1.9l-0.8,2.1l-11.7,0.6l-4.9,2.6
		l-0.2,5.3l-5.3,2.1l-3.6,1.9h-3l-1.1-1.3l-1.7,1.7l-0.8,0.2l1,0.7l-3.6,3.2l0.8,0.8l0.8,1.5l-1.9,2.7l2.1,1.1l3.6,0.8l0.4-1.5
		l2.1,2.7h3.4l2.5-2.7h3.2l-3.4,1.7l0.2,1.9l0.8,1.7l-2.1,2.1H150l0.4,2.8l4.1-0.8l4.9,4.5l-0.2,0.3l3.6,2.3l0.8,1.9l3.3,1.4
		l2.5,0.3l1.1,3l3.9,0.9l2.6,0.5l1.4-1.6l-1.4-2l-0.6-4.4l1.2-1.4h1.7l0.8,1.7l-0.5,3.1l1.1,0.8l2.8-0.9l0.9-3.1l-1.2-1.3h3.1l1.1-2
		l1.1,0.2l2.5,2.4l1.8,0.2l0.1-2l-1.6-2H190l-0.5,0.2l-0.9-0.5l0.8-0.8v-1.4l1.6-0.5l0.9-2.2l-0.8-0.8l-0.2-2.7h-2l-2-2.5v-1.8
		l2.2-1.1l3.9-0.8l6.1,0.2l1.9-1.3l-0.6-3.9l-2.8-2.6l-3.4,0.5l-0.9-0.8l-0.2-2.8l2.5-2.2l-1.9-2.3l-1.2-3.3l-2-1.2v-2.2l-0.2-0.7
		l-3.5-0.9l-1.7-2.3L182,233.1z"/>
	<path inkscape:label="Haute-Saone" class="st0" d="M463.4,223.1l-3.6,0.6l-0.6,1.9l-1.9,1.3l-1.3-1.5l-0.9,0.6l0.7,1.1l-1.9,1.1
		l0.6,1.5l-2.1,0.8v2.5h-2.7l-0.2,1.5L447,235l0.2,2.3l1.7,0.2l-0.9,1.1l-0.6,3.8h-1.7l-2.8,1.1l-3-1.1l-2.6,1.1v1.9l2.1,0.4l1.5,3
		l0.2,1.5l-2.5,2.8l-1.1,0.4l-0.8,0.9l2.1,1l0.4,3l1.7,0.2l0.2,3.8l0.8,0.8l0.1,0.6l1.5,0.4l1.6,1.4h2.5l0.9-0.9l1.7,0.1l1.7,0.1
		l3.8-3.1h1.1l1.2-0.9l3.9,0.1l3-2.5l2.2-0.4l0.8-2l1.8-0.5l1.8-3l2.5-1.9l2.6-0.4l1.9,1.4l3.5-0.4v-1.9l1.4-0.8l1.1-1.5h2.2
		l1.2-1.3l0.5-3v-1.9l-0.8-2.9v-2.4l1.5-1.1l1.8-0.9l-0.2-0.4l-6.1-3.2l-1.7-1.9l-1.7-1.1l-1.5,0.8l-0.2,1.1l-1.5,0.9h-0.9l-2.8-3.2
		h-4l-1.7,1.3l-1.5,0.2l-2.5-1.9l0.2-2.1L463.4,223.1z"/>
	<path inkscape:label="Seine-Maritime" class="st0" d="M287.6,112.7l-1.2,1.5l-8.1,6.2l-14.4,3.6l-9.5,3.4l-7.7,4.2l-4.5,6.8
		l-0.9,5.3l3.8,2.8l5.5,1.1l-0.9,0.2l0,0.2l4.2-0.5l2.2-2.3l1.6-0.4l1.9,3.3l2.6-0.3l1.1,1.9l4.6-0.3l4.6,3.3l-3,0.9l2.2,1.6h1.4
		l1.2,2.6h2.2l0.7-1.6l-1.6-1.1l4.6-1.4l4.9-0.5l1.2-3.5l2.3-2l4.4-0.1l5,2.6l3,0.3l0.5-1.6l1.3-2.5l0.8-1.3h-1.9v-3.2l-1.1-1.9
		l0.8-3.8l0.8-1.9h-1.5l0.8-1.9l1.9-2.3l-1.9-3.4l-0.6-3.4l-8.3-8.1l-0.9-1.9l-2.1,0.2L287.6,112.7z"/>
	<path inkscape:label="Eure" class="st0" d="M257.7,144.7l-1.6,0.4l-2.2,2.3l-4.2,0.5l0.9,7l1.9,0.6v0.8l-1.9,1.1l2.3,3.2l1.1,4.5
		l-0.2,1.9l-1.7,1.1l0.2,1.3l1.9,0.8l0.2,1.7l-1.5,4.4l1.5,1.9l5.3,0.2l1.1,2.6l1.9,1.9l2.6,0.9l0.8,2.8l-1.3,1.9l2.8,1.8l2.7-2.6
		h2.6l6.8-3.6l2.2,0.9h4.8l1.1-1.3v-2.8l3.8-1.9v-3l1-0.8l-0.1-0.8l1-1l-1.7-0.4v-1.5l-1-1.5l0.8-0.9l5.3-1.5l1.3-2.3l1.1-4.2
		l1.4-1.7l0.3-2.2l1.7,0.9l1.3-0.4l-1-1.5l-0.5-4.4l-1.7-1.5l0-0.1l-3-0.3l-5-2.6l-4.4,0.1l-2.3,2l-1.2,3.5l-4.9,0.5l-4.6,1.4
		l1.6,1.1l-0.7,1.6h-2.2l-1.2-2.6h-1.4l-2.2-1.6l3-0.9l-4.6-3.3l-4.6,0.3l-1.1-1.9l-2.6,0.3L257.7,144.7z"/>
	<path inkscape:label="Indre-et-Loire" class="st0" d="M258.8,243.8l0.4,0.8l-5.5,1.5l-1.3,1.9l-2.3-1.5l1.1,3.8h-2.1l-3.8-2.7
		l-1.9,3.8l0.9,1.1v1.1l-1.9,2.5l0.2,4.1l-3,3.6l-2.1,7.7h0.2l0.8,3l3.6,0.8v2.3l4.5,1.3v3.6l-0.2,2.3h5.7l4.9-1.1l-0.4-2.1l1.5-0.9
		l1.5,2.1l1.3,0.6l1.1,4.5l3.2,3.4l0.4,2.7l2.9,2.9l1.7-0.2l2.1-1.9l1.5-7.7l0.9-2.7l0.7-3.4l3-1.1l2,0.4l1.4,1.2l1.5-2.5l1.4-1.2
		v-1.5l1.8-0.1l0.4-1.8l-1.5-2l0.2-0.8l-1.1-0.9l-2.8-4.2h-3.7l-1.1-1.6V258l-1.5-3.9l-0.3-4.9l-1.9-0.2l-2.2-1.6h-0.5l-1.9,1.4
		l-1.2-0.8l-0.3-1.9l1.4-0.7l0.1-0.7l-0.8-0.7L258.8,243.8z"/>
	<path inkscape:label="Cher" class="st0" d="M320.2,247.6l-2.8,1.4l-2.5,2l0.1,0.8l2.5,0.7l1,2.1l1.5,0.5l-0.5,1.2v2l-2.3,1
		l-1.8,3.2l-0.1,1.8l0.7,0.8l0.3,0.9l-2.4,1.4l-3.8,0.4l-0.9-1.1l-1.1,0.1l-1.1,1.2l0.1,2.5l-2.4,0.2l-0.2,2.1l-2.2,1.8l0.3,0.8
		l1.4,1.1l2.7,0.4l2-0.8l2.6-0.1l1.2,0.9l-0.4,2.6l2.2,2.9v1.2l-0.9,1.6v0.7l1.1,1.2h1.8l0.1,0.8l-2.1,1.8l0.1,1.2l-1.4,0.7l0.5,0.9
		l1.8,1.5v1.1l-1.9,1.1v1.6l2.6,1.4l0.5,1.9l1.6,1.5l-0.2,0.5l-0.7,0.8l-0.2,2.5l-0.4,0.8l1.1,2.1l0.4,1.6l-1.9,1.9l-0.1,1.5
		l4.4-0.5l0.9-1.9l2.5-2.8l4.7-1l2.5,0.8l2.6-2.1l-0.2-1.5l-0.9-0.8v-3l5.1-5.1l1.9,2.1l1.7-1.7l1.5-0.2l2.6-3.4l4.4,0.4l0.1,1
		l1.5-4.6l-0.9-1.7l0.2-2.5l0.6-4.9l-2.1-2.1l0.4-4.5l-1.9-4l-0.2-2.6l-3.4-2.7l-0.5-2.3l1.7-2.5v-3.6l-2-2.3l-1.9,0.8l-0.9-0.4
		l-1.4-1.8l-0.8-0.1l-0.5,0.3l-0.2,2.7l-1.2,0.1l-0.9-0.8l-2.2-3l-0.8-1.1l-3.1-0.2l-1.5-1.9h-1.2l-0.5,0.7l-2,0.3l-1.6-1.5
		l-1.9-0.8L320.2,247.6z"/>
	<path inkscape:label="Nievre" class="st0" d="M350.4,250.5l-0.9,1.5h-1.8l-2.4-0.5l-2.7,0.8l0.2,1.9l2.3,2.6v3.6l-1.7,2.5l0.5,2.3
		l3.4,2.7l0.2,2.6l1.9,4l-0.4,4.5l2.1,2.1l-0.6,4.9l-0.2,2.5l0.9,1.7l-1.5,4.6l0.1,1.4l3.2,1.5l2.3,2.5l2.1-1.1l1.9-1.1l0.4,1.7h2.8
		l0.8-1.5l1.7,0.8l0.6,2.5l1.5-0.4l3.6-4.9l1.9,1.3l0.3,0.6l3-1.8l1.2,0.2l0.9,2.3l1.8-0.3l1.4-1.4h1.8l1.4-1.8l1.4-0.3l0.3-1l3,0.2
		l0.2-0.7l-1.4-1.2v-1.2l1.9-1.1v-0.8l-1.8-1.1l-0.3-2l0.2-1.9l-1.2-0.8l1.1-1.5l1-0.5l0.7-1.6l-0.9-0.5l-1.1-1.6l1.4-1.9l2.3-1.4
		h2.8v-2.1l0.8-0.3v-0.8l-1.2-1.9l-2.7-0.5l-0.9-1.6l0.4-1.5l0.3-2.1l-0.5-1.1l-3,2.1l-1.2,0.5l-1.6-1.1l0.2-2.7h-1.8l-1.5,1
		l-0.4-1.2l0.8-1.4l-1-1.2l-1.1,1.6l0.2,1.2l-2.6-0.1l-4.1-3.8l-3.1-0.1v-2.1l-2.2-1.4l-0.4-1.8l-0.7-0.1v3.4l-1.2,0.3l-1.8-0.5
		l-1.9,1.2l-1.1,0.3l-1.1-0.9l-1.1,0.5l-2.5-1.6h-1.8l-1.2-0.8l0.3-1.5l-1.4-1.2H350.4z"/>
	<path inkscape:label="Saone-et-Loire" class="st0" d="M393.7,273.8v0.2h-2.8l-2.3,1.4l-1.4,1.9l1.1,1.6l0.9,0.5l-0.7,1.6l-1,0.5
		l-1.1,1.5l1.2,0.8l-0.2,1.9l0.3,2l1.8,1.1v0.8l-1.9,1.1v1.2l1.4,1.2l-0.2,0.7l-3-0.2l-0.3,1l-1.4,0.3l-1.4,1.8h-1.8l-1.4,1.4
		l-1.8,0.3l-0.9-2.3l-1.2-0.2l-3,1.8l3.5,6.6v2.8l0.9,1.1h3.2l1.1,1.5h3l1.3,1.9l-0.2,7.4l-4,3l-0.1,0.2l0.3,0l0.6,0.2l0.2,3
		l2.8,0.6l0.4,1.3h1.5l2.3-1.3l6.1,0.9l1.1,1.1l1.5-1.5h2.1l1.1-6.1l0.8-0.6h1.9l2.3,1.5l1.7-1.5l1.1,1.5l1.7-1.7l2.1-0.2l1,3
		l0.7,3.8l1.3,0.2l1.1-2.7l3.6-14l1.3-2.5l2.1-0.2l2.1,1.7l1.5-0.4l1.9-1.3l1.9,0.4l1.1,2.5l1.1,0.4l5-0.6l1.9-1.5l-0.8-1.1
		l-2.3-0.8l-0.2-2.6l1.9-1.3l0.8-3.2l-1.7-3l-1.1-1.5l0.6-0.6v-1.9l-1.5-1l-0.4-1.5l4.4-0.5l0.4-1.5h-1.3l-1.1-1.3h-2.1l-1.7-2.8
		l-1.5-0.2l0.2-2.3l-1.6-0.2l-2.2,1.5l-2.2,0.5l-1.5-0.9l-1.9-0.1l-0.5,0.8l-1.8,0.3l-3.9,1.2l-5.7,2l-2.2-1.8l-2.6-0.5l-0.1-2.3
		l-2.5-1.8l-3.4-2.6l-3.8,0.1l-3.7-3.8L393.7,273.8z"/>
	<path inkscape:label="Oise" class="st0" d="M302.4,130.8l-1.2,1.5l-0.8,1.9h1.5l-0.8,1.9l-0.8,3.8l1.1,1.9v3.2h1.9l-0.8,1.3
		l-1.3,2.5l-0.5,1.7l1.7,1.5l0.5,4.4l1,1.5l-1.3,0.4l-1.7-0.9l-0.3,2.2l0.1-0.2l0.7,1.7l1.1,1.9l5.1,0.4l3.6-0.4l2.5-1.9l3,1.9
		l1.5,1.1l2.3-0.6l2.1-0.9l4,2.1l4.1,2.5l1.3,1.3l2.3-1.5l1.9,1.1l1.1,0.9l1.7-0.2l1.1-1.5l2.6,1.5l3.2-1.3l1.9,0.6l1.9-1.5l1.1-0.6
		l0.4,0.3l0.4-2.6l-1.4-1.5l-2.3-1.5l-1,1.5l-0.6,0.2l-0.2-2.9l1.7-0.4l-0.4-2.7l-2.3-0.4l1.1-1.9l3.3-0.8l1.1-4.6l1.7-0.8l-2.3-1.7
		l0.8-1.7l0.4-5.7l-0.8-4.4l-4,0.4l-2.7-0.4l-5,1.3l-4.2,4l-3.4-1.1l-3.4-0.4l-2.7-2.7l-4.8-1.4l-6.5,0.6l-1.7-1.3h-3.5l-2.5,1
		l-1.1-0.8v-2.1l-0.4-0.6H302.4z"/>
	<path inkscape:label="Pas-de-Calais" class="st0" d="M314.1,61.5l-10.5,2l-8.3,6.4v25.5l-0.1,0.8l2.9,0.7l0.9,2.1l2.3-0.6l1.3-1.7
		l1.7,0.6l3.6,2.8l1.3-0.5l0.9,2.3l3.4,1.5v1.9l2.5,0.9l2.5-0.9l4.7-0.6l1.1,1l2.3-1l1.1,1.9l-2.8,1.9v2.7l0.9,0.9l0.8-0.2l0.5-1.5
		l1.7-1.1l1.7,1.3l4,1.3h1.7V110l2.5,1.7l0.2,1.5l-1.1,1.7l2.1-1.1l1.7-0.8l0.7,1.3v1.3l2.8-1.5h4.5l0.2,0.2l1.1-2.1l-0.6-1
		l-1.7-0.4h-1.9l-1.1-0.4l1.9-1.1l1.7,0.2l1.7-0.2l0.2-3.1l1.1-0.8l0.2-1.7l-2.1-1.4l-2.5-0.2l-0.6-0.4l1.5-1.1l0.4-1.1l-1.3-0.9
		l-1.9-2.3l0.2-1.1l2.5-1.1l0.4-1.3l-1.7-0.8l-1-2.5l-3.4-0.4l-3.4-0.9l-0.4-3.8l2.5-1.5l-0.9-1.9h-1.9l-1.3,2.1l-6-0.4l-4.8-1.2
		l-2.7-2.9v-2.3l2.1-1l-1.7-1.3l-4.2-0.2l-2.5-6.4L314.1,61.5z"/>
	<path inkscape:label="Nord" class="st0" d="M330.1,57.1l-6.1,2.8l-9.4,1.5l-0.5,0.1l3.6,5.7l2.5,6.4l4.2,0.2l1.7,1.3l-2.1,1v2.3
		l2.7,2.9l4.8,1.2l6,0.4l1.3-2.1h1.9l0.9,1.9l-2.5,1.5l0.4,3.8l3.4,0.9l3.4,0.4l1,2.5l1.7,0.8l-0.4,1.3l-2.5,1.1l-0.2,1.1l1.9,2.3
		l1.3,0.9l-0.4,1.1l-1.5,1.1l0.6,0.4l2.5,0.2l2.1,1.4l-0.2,1.7l-1.1,0.8l-0.2,3.1l-1.7,0.2l-1.7-0.2l-1.9,1.1l1.1,0.4h1.9l1.7,0.4
		l0.6,1l-1.1,2.1l1.5,1.5l1.5,0.4l1.5-1h2.1l0.6,1.1l0.8-0.2l2.3-1.3l2.3,1.3l3-2.1h1.3l1.5,1.3l3-2.1l1.3,0.2l1.1,0.9l4.2,0.4
		l0.4,1.7l2.1-1.9h1.1l0.8,2.5l3.6,0.9l1-0.7h-0.3l-0.2-1.9l3.8-2.3l-0.6-3.6l-3.6-0.9l0.9-1v-2.6l2.8-2.1l-0.8-1.5l-6.1-4.7
		l-10.6,0.6l-1.1,1.9H370l0.2-6.6l-3-3.6l-2.3,0.4l-1.3-1.5l-3.8,1.7l-1.3-1.3l-2.7-0.4l-0.8-2.5l-0.2-7.6l-1.7-0.8L353,76h-1.1
		l-0.4-2.3l-2.5,0.2l-4.7,1.5l-2.3,2.8h-2.3l-1.5-1.9l-0.6-2.1l-1.9-2.1h-2.7l-1.1-2.1v-3.2l1.3-2.1l-0.8-2.8L330.1,57.1z"/>
	<path inkscape:label="Aisne" class="st0" d="M371.4,113.4l-3,2.1l-1.5-1.3h-1.3l-3,2.1l-2.3-1.3l-2.3,1.3l-0.8,0.2l-0.6-1.1h-2.1
		l-1.5,1h-0.1l0.5,2.7l-2.5,2.7v2.5l-1.7,1.9l0.4,2.3l0.9,3.8l1.1,6.5l-0.4,5.7l-0.8,1.7l2.3,1.7l-1.7,0.8l-1.1,4.6l-3.3,0.8
		l-1.1,1.9l2.3,0.4l0.4,2.7l-1.7,0.4l0.2,2.9l0.6-0.2l1-1.5l2.3,1.5l1.4,1.5l-0.4,2.6l1.7,1.2l0.6,4.2l5.1,4.9l1.7,0.6l1,2.3
		l3.2,0.7l0.4-0.5l1-2.1l2.8-1.3l1.5-4l1.7-1.1l-1-1.3h-2.5l-0.4-1.3l1.7-0.8l0.8-1.1l-1.7-1.1l0.5-1.7l4.4-0.4l-0.8-1.7l-2.6-1.7
		v-5.1l3.6-2.7h4l-0.4-1.9l2.3-1l3.2,2.1l1.3-0.4l-0.2-6.4l0.6-2.3l0.8-2.6l-2.5-1.3l0.6-1.5l3.6-0.8v-2.5l2.8-1.5l0.8-2.3l-0.9-1.5
		l0.2-2.8l1.7-1.5l-1.7-3.2l0.5-3.4h-3.8l-1,0.7l-3.6-0.9l-0.8-2.5h-1.1l-2.1,1.9l-0.4-1.7l-4.2-0.4l-1.1-0.9L371.4,113.4z"/>
	<path inkscape:label="Somme" class="st0" d="M295.2,96.2l-0.5,6.2l4.2,3.8v1.9l-5.1-3l-6.1,7.6l1.6,0.7l2.1-0.2l0.9,1.9l8.3,8.1
		l0.6,3.4l1.9,3.4l-0.6,0.8h2.4l0.4,0.6v2.1l1.1,0.8l2.5-1h3.5l1.7,1.3l6.5-0.6l4.8,1.4l2.7,2.7l3.4,0.4l3.4,1.1l4.2-4l5-1.3
		l2.7,0.4l4-0.4l-0.4-2.1l-0.9-3.8l-0.4-2.3l1.7-1.9v-2.5l2.5-2.7l-0.5-2.7l-1.5-0.4l-1.7-1.7h-4.5l-2.8,1.5v-1.3l-0.7-1.3l-1.7,0.8
		l-2.1,1.1l1.1-1.7l-0.2-1.5l-2.5-1.7v1.9h-1.7l-4-1.3l-1.7-1.3l-1.7,1.1l-0.5,1.5L326,112l-0.9-0.9v-2.7l2.8-1.9l-1.1-1.9l-2.3,1
		l-1.1-1l-4.7,0.6l-2.5,0.9l-2.5-0.9v-1.9l-3.4-1.5l-0.9-2.3l-1.3,0.5l-3.6-2.8l-1.7-0.6l-1.3,1.7l-2.3,0.6l-0.9-2.1L295.2,96.2z"/>
	<path inkscape:label="Meurthe-et-Moselle" class="st0" d="M442.2,138.8l-2.3,2.1l-3.2,0.2l-1.1,1.1h-0.2l-0.1,2.3l1.1,1.8l-0.4,1.1
		l-0.4,1.3l0.2,0.7l0.9-0.7l0.9-1.7l1.9-0.2l3.1-0.9l1.7,1.3l0.7,1.5l0.6,1.7v1.7l0.9,0.8v1.3l-0.9,1.1l-0.2,2.4l0.7,1.1l0.2,1.5
		l0.2,2.4l1.1,0.9l1.7,0.7l-0.7,1.5l2,1.9l-1.8,2l0.4,1.3l1.8,0.9v0.9h-2.2l-0.9,1.3l0.2,0.9l1.5,1.5l-1.3,3.5l-1.5,3.3l0.7,2.1v3.3
		l0.8,1.7h1.1l0.6,0.9h-1.7l-1.5,0.7v1.1l1.8,1.7v2.6l1.8-0.6l2.8,0.2l0.2,3l1.1,0.4l-1.3,0.9l-0.2,0.9l2,0.4l1.3,1.7l6.1-0.4
		l1.3-2.4h2.8l1.1-0.9l1.8,1.1l1.7-0.6l2.4,0.2l2-0.7l2-1.5l1.1,1.1l0.2-2.6l1.5-0.6l0.8,2.4l2.2,0.2l2.2,0.6l0.9,0.2l3.2-1.5
		l1.7-1.1l1.5-1.8l3-1.1l1.9-0.4l-1.1-1.1l2.1,0.2l0.4-0.4l-2.2-0.7l-3.1-2.2l-2.8-2.1h-3.3l-3.5-2l-2.8-0.2v-0.8l-4.3-2.6l-4.8-2.1
		h-2.4L469,178l-3.7-4.7h-3.7l-1.5-2h-3l0.2-3l-3.9-2.4l0.2-2.4h2.1v-2.1l0.7-1.5l-1.7-1.7l1.5-2.6l-1.1-3l-0.9-0.8l-2.4-5.2
		l0.9-1.5c0,0-0.1-1.2-0.2-2.8H450l-3.4-3.8H442.2z"/>
	<path inkscape:label="Seine-et-Marne" class="st0" d="M351.1,165.9l-1.1,0.6l-1.9,1.5l-1.9-0.6l-3.2,1.3l-2.6-1.5l-1.1,1.5
		l-1.7,0.2l-1.1-0.9l-1.9-1.1l-2.3,1.5l-0.1-0.1l-0.8,5.2l1.1,6.7v4.4l-1.5,3.7l0.4,2.6l-1.7,1.3l0.9,5l-0.7,1.1l-0.5,5l1.3,1.7
		l-4.2,2.8v3.8l1.2,1.8l2.3,1.1l0.2,3.2l-3,2.1l1.7,1.5l2.1-1.3l5.1,0.2l1.9-0.4l0.6-1.5l2.1,0.2l0.4,1.5l4.7-2.7l1.7-2.1l2.3-2.7
		l-1.5-1.7l1.3-2.8l3.4-1.7l7.4,0.4l1.7-1.3l0.2,0.2l0.4-3.2l0.8-3.8l1.3-1.7l0.2-2.3l2.6-1.1V192l-2.8,0.2l-0.6-1.3l0.9-1.7
		l-0.8-2.8l-1.5-0.9l0.4-2.6l1.5-1l-0.2-1.1l0.5-0.7l-3.2-0.7l-1-2.3l-1.7-0.6l-5.1-4.9l-0.6-4.2L351.1,165.9z"/>
	<path inkscape:label="Essonne" class="st0" d="M318.9,185.2l-1.7,0.8l-1.8,0.7l-0.4,2.1l-2.8,1.3l-0.4,2l1.3,2.2l-1.9,2.6h-2.8
		l1.1,1.7l-1.3,1.5l-0.5,3l0.9,0.2l0.4,2.5l0.4,0.6l0.4,5.1l6.1-0.5l2.5-2.3l2.1,1.7l5.1,0.4l0.7,1.1v-3.8l4.2-2.8l-1.3-1.7l0.5-5
		l0.7-1.1l-0.9-5l1.7-1.3l-0.3-2.4l-2.1-1h-3.5l-2-1.1l-1.5,0.8L318.9,185.2z"/>
	<path inkscape:label="Val-d&apos;Oise" class="st0" d="M300.8,159.3l-1.5,1.9l-1.1,4.2l-1.3,2.1l4.6,2.1l3.5-0.6l4.4,2.8l4.7,0.2
		l3.3,2l0.8,2.8l0,0.1l0.4-0.1l3.4-1.8l5.1-0.3l2.8-1.3l1.8-1.3l0.6-3.7l-1.2-1.2l-4.1-2.5l-4-2.1l-2.1,0.9l-2.3,0.6l-1.5-1.1
		l-3-1.9l-2.5,1.9l-3.6,0.4l-5.1-0.4l-1.1-1.9L300.8,159.3z"/>
	<path inkscape:label="Doubs" class="st0" d="M486.6,246.5l-0.2,0.2h-2.2l-1.1,1.5l-1.4,0.8v1.9l-3.5,0.4l-1.9-1.4l-2.6,0.4
		l-2.5,1.9l-1.8,3l-1.8,0.5l-0.8,2l-2.2,0.4l-3,2.5l-3.9-0.1l-1.2,0.9h-1.1l-3.8,3.1l-1.7-0.1l0,1.1l0.3,2l2.5,1.6l1.4,1.8l-0.4,1.9
		l-1.2,2.9l-0.8,1.9l5.3,1.8l3.4-0.3l0.3,2.8v3.8l4.2,1.4l1.9,0.5l2.7,2.6l-0.3,2.2l-1.2,1.8l-3.4,1.1l0.8,1.9l0.4,1.5l-1.5,1.5
		l0.2,1.4l2.3,0.2l0-0.2l11.7-11l-0.4-9.1l4.1-2.1l2.8-1.3l2.6-2.5l0.2-3.6l2.6-1.3l6.1-7l-0.9-2.3l2.1-0.9l2.5-3l-1.3-1.3l-4.5,0.9
		l-0.2-0.8l4.2-4.8L486.6,246.5z"/>
	<path inkscape:label="Territoire de Belfort" class="st0" d="M490.5,233.3l-1.8,0.9l-1.5,1.1v2.4l0.8,2.9v1.9l-0.5,3l-1,1.1
		l11.7,5.3l0.7-0.8l2.5-0.4l-0.9-4l-0.6-2.1l-2.7,0.4l-0.4-2.3l0.9-1.7l0.2-2.3l-0.5-1.3l-3.4-2.7l-3-0.2L490.5,233.3z"/>
	<path inkscape:label="Ain" class="st0" d="M424.5,307.4l-2.1,0.2l-1.3,2.5l-3.6,14l-0.5,1.1l-0.4,4.4l-1,1.4v6.4l-0.6,1.5l3.7,2.2
		l1.5,0.2l2.3,2.1l0.4,3.3l2.5-0.8l3.8,1.1l0.1-0.7h1.8l2.7,2.5l2.5-1.2l1.2-3.7l1.2-1.5l1.6,0.2l1.6,1.5l0.8,2.7l7.6,9.3l2.3-1.6
		l0.4-3.5l2.5-0.4v-6.2l1.2-1l0.4-5.5l0.5,0.4l-0.1-2l-1-1.9l0.4-5.3l1.8,1l1-1.9l1.8-0.6l1.9-1.5h-2.1v-3.6l2.3-1.3l3.4-0.4
		l0.2-1.9l-1.1-0.8l2.8-3.6l-0.4-1.1l-3.2-1.7l-7.9,8.7h-5.5v-2.3l-3-1.5l-3.6,4l-2.8,0.4V318l-2.5-1.1l-3.8-5.3l-3.4-1.3l-1.1-2.5
		l-1.9-0.4l-1.9,1.3l-1.5,0.4L424.5,307.4z"/>
	<path inkscape:label="Haute-Savoie" class="st0" d="M485.3,310.9l-4.3,0.8l-4.2,3.4l-1.1-1.7l-2.1,0.2l-1.9,4.2l0.2,1.7l2.1,1.7
		l-3.8,2.5l-2.5,2.3h-4.2l-1.9,1.5l-1.8,0.6l-1,1.9l-1.8-1l-0.4,5.3l1,1.9l0.1,2l1.6,1.2v5.4l3.7,0.6l1.4,2.7l3.3,0.4l0.6-1.2h1.7
		l2.9,3.1l1,1l3.3-0.6l0.8-1.6l0.8-3.3l1.8-1.5l1.5-4.3l1.8-1.2l1.5,0.4l0.4,1.2l-1,1.2l1.8,2.3h3.1l1.9,3.1l-0.4,1l1.8-1.2l1.5-1.6
		l1.3,0.2l0.1-3.3l6.4-2.7l0.8-1.9l-0.4-4.2l-4.1-4.3l-1.3,0.8v-1.7v-2.8l-3.6-1.7l-0.2-1.5l2.1-2.3v-2.6l-3.4-3.6l-0.2-2.5H485.3z"
		/>
	<path inkscape:label="Loire" class="st0" d="M382.1,322.4l-3.4,0.6l-0.5,2.1l1.3,2.6l0.4,10.8l-4.5,0.2l-0.2,1.7l3,2.5l-1.7,1.7
		l-0.6,4.2l2.3,3l2.1,4.9l4.9,3.2l1.7,6.2l-3.6,3.4l0.6,2.3l5.3,1.7l4.2-3.4l2.1-0.2l6.1,2.6l-0.4,3.6l3-0.2l2.4,2.8l1.8-0.5
		l3.3-0.6l0.8-3.7l4.5-2.7l0.4-6l0.2-0.1l-2.2-0.3l-2.1,0.8l-1.7-1l2.1-2.5l-0.6-1.8l-6.4-1l-5.4-4.9v-1.7l1.2-1v-1.4l-1.4-0.8
		l1.2-1.8v-2.7l-2.5-2.3v-2.3l-1.7-1.6v-1.8l-0.8-3.1l1.2-1.2l0.2-3.7h3.9l1-1.2l-1.2-2.1v-1.8l-1-0.8l-0.7,3.9h-2.1l-1.5,1.5
		l-1.1-1.1l-6.1-0.9l-2.3,1.3h-1.5l-0.4-1.3l-2.8-0.6l-0.2-3L382.1,322.4z"/>
	<path inkscape:label="Savoie" class="st0" d="M457.1,337.6l-0.4,5.5l-1.2,1v6.2l-2.5,0.4l-0.4,3.5l-2.3,1.6l0,0l0.2,1.1l2.3,2.5
		v1.7l2.2,4.1l4.8,1l1.6,1.2l0.6-0.6l-0.8-1.6l1.2-2.7l1.5-0.2l2.5,3.3l1-1.4h1.5l3.9,3.9l0.2,2.7l-1.8,1l-0.8,3.9l1.7,1.7v1.6
		l-0.4,1.7l1.2-1.2l2.1,1.2l1.1,1.5l3.4-0.4l1.1,1.1l0.6,2.7l3.4-0.4l0.4-2.8l1.7-0.8l3.6,0.2l-0.1-0.1l5.7-2.3l2.1,1.3h2.1l0.2-2.3
		l2.5-1.3l0.9-1.1l4.9-1.9l0.6-3.2l-1-1.5l2.7-4.5l-2.5-0.9l-0.8-2.7l-5.1-3c0,0,0.3-5.8-0.2-6.8c0,0,0-0.1-0.1-0.1c0,0,0,0,0,0
		c0,0,0,0,0,0c0,0,0,0,0,0c0,0,0,0,0,0c0,0,0,0,0,0c0,0,0,0,0,0c-0.8,0.2-3.6,0.4-3.6,0.4l-2.8-3.2l0.1-3.1l-1.3-0.2l-1.5,1.6
		l-1.8,1.2l0.4-1l-1.9-3.1h-3.1l-1.8-2.3l1-1.2l-0.4-1.2l-1.5-0.4l-1.8,1.2l-1.5,4.3l-1.8,1.5l-0.8,3.3l-0.8,1.6l-3.3,0.6l-1-1
		l-2.9-3.1h-1.7l-0.6,1.2l-3.3-0.4l-1.4-2.7l-3.7-0.6v-5.4L457.1,337.6z"/>
	<path inkscape:label="Charente-Maritime" class="st0" d="M197.9,315.2l-2.7,0.2l-5.8,3.5l1.4,1.3l-3,2.5l-0.4,1.9l-2.8,0.4
		l-1.5-1.7l-3.8-0.4l-0.4-1.9l-2.3-1.5l-3.2,1.1l2.1,3h2.6l2.7,1.7l2.1,1.7l4-0.2l0.8,1.7l2.6,0.6l1,2.6l1.7,0.8l-0.2,2.1l-2.3-0.4
		l-0.8,1.1l1.7,2.5l-0.9,4.2l-2.3-0.2l0.2,2.6l0.6,0.9h-2.7l-0.4-1.5l1.7-2.3l-0.6-1.3l-0.9-0.8l-0.4-4.5l-3.2-0.4l-2.6-3.2
		l-0.4,6.6l4.4,3.2l0.4,3.6l0.8,4.1l0.4,4.2l2.3-0.2l4,3.2l2.7,1.5l0.2,1.9l2.1,0.4l6.1,6.1l1.4,6.5h5.6l0.9-0.9l0.2,2.8l4.9,0.6
		l0.8,6.1l2.7,0.2l4.3,4.4l2.3,0.4l2.7-1.3l1.9,1.3l1.5-3.2l1.5-2.6l-4-2.7l-1.2-1.7l-1.7-1.8l-3.9,0.6l-1.2-0.6l-0.2-1l2.1-0.8
		v-0.4l-1.5-0.4l-1-0.8l2.5-2.1v-1.5l-1.2-1.2l0.8-0.8l0.4-2.1l-1.5-1.4l-1.2-2.1l-2.2-2.1l-1.7-1l1.5-1.7l-0.8-0.2l-0.2-4.3
		l-1.7-0.6l2.3-1.2h2.7l1.2-1h2.3l0.4,1l2.1,0.2l1.4-0.6l0.4-3.9l1.6-6l0.1,0l-1.5-1.4l-0.4-2.1l-2.7-1.2l-3.5-2.5l-4.3,0.4
		l-2.7-3.5l-3.9-0.2l-3.1-2.3v-1.2l-2.1-2.2l-0.1-2.8l-2.8-2.1l-3.6,1.5L197.9,315.2z"/>
	<path id="d" inkscape:label="Vienne" class="st0" d="M236.1,271.7l-3.6,3.8l-0.9,1.6l0.3,4.7l1.6-0.2l0.2,2.1l0.6,3.3l1,2.3
		l-1.2,1.4l0.6,1L234,293v0.6l1.5,1.7v1l-0.6,1.6l-2.1,3.1l2.1,0.8l0.6,1.5l-0.8,2.2l-0.2,1l-1.2,2.1v1.5l0.8,0.2v4.3l1.5,1
		l-0.6,1.4l0.2,1.2l1.6,1.8l0.8-1.2v-1l1.6-0.8l1.2,0.8v3.1l-1.2,1.5l-1,2.5l1.4,2.3l2.9,0.8l-0.6,1.9l-2.7,0.5l2.5,3l3.3-0.2l2.9-1
		l2.9,1.7l1-0.8l-0.2-2.7l1.6-1.2l1.5,2.5l1.2,1.2l3.5-1.5l1.5-1.6h3.3l1.7,0.8l0.1-3.6l-1.3-1.5l1.5-1.1l2.5-2.8l4.1-0.2V319
		l2.1-1.7l5.1-0.9l0.4-2.8l-2.1-1.1l-1.1-4l-3-0.4l-1.9-1.9l-3.6-2.8l0.8-2.3v-3.6l-3.4-3.4l-0.4-2.7l-3.2-3.4l-1.1-4.5l-1.3-0.6
		l-1.5-2.1l-1.5,0.9l0.4,2.1l-4.9,1.1h-5.7l0.2-2.3V279l-4.5-1.3v-2.3l-3.6-0.8l-0.8-3H236.1z"/>
	<path inkscape:label="Manche" class="st0" d="M169.1,128.2l-0.8,1.9l4,3.2v4.2l-1.5,1.9l0.9,0.9l0.6,0.4l-0.4,3.6l1.3,3l4.4,4.9
		l0.9,4.4l0.9,1.3v6.8l2.3,4.5v5.3l-2.5,4.9l2.6,6.8l4.2,0.9l0.4,1.9l-2.1,0.9h-3.6l0.6,2.4l1.1,3.6l3.2,2.8l1.5,0.4l1.5-2.1
		l1.7-0.2l2.1-2.5l1.9,1.5h2.3l1.5,0.8v0.4l3.2,0.4l1.9-1.5l2.8,1.1l0.1,0.1l3.2-2.8l1.1-3.6l-0.3-1.6l0.5-1.8l-1.9-1.9l-4.8-3.1
		l-3.6-0.3l-3.6-4.5l3-1.1l1.2-2.3l-1.5-1.4l1.4-1.2l1.4,1.1l2.5-1.5l1.6-2.5l0.6-2.5l-1.1-2.2l0.6-0.8l-1.4-2.3l1.6-2l-1.2-1.6
		l-1.6,2l-2.2-1.2l-3.6-3.6l-0.2-1.5l1.1-1.1l-0.3-2.1l-1.8,0.5l-0.2-4.5l-4.9-5.8l1.5-3.8h2.1l-1.9-5.1l-8.1-0.4l-4.4,3l-4.9-3.2
		L169.1,128.2z"/>
	<path inkscape:label="Maine-et-Loire" class="st0" d="M190.8,235.8l-0.4,0.8l-0.3-0.1l0.2,0.7v2.2l2,1.2l1.2,3.3l1.9,2.3l-2.5,2.2
		l0.2,2.8l0.9,0.8l3.4-0.5l2.8,2.6l0.6,3.9l-1.9,1.3l-6.1-0.2l-3.9,0.8l-2.2,1.1v1.8l2,2.5h2l0.2,2.7l0.8,0.8l-0.9,2.2l-1.6,0.5v1.4
		l-0.8,0.8l0.9,0.5l0.5-0.2h1.4l1.6,2l-0.1,2l0.4,0.1l1.6,0.9h4.8l2.6,2.2l3.6-1.5l5.9,1.3l2.6-1.7v-2.6l5.1-0.4l4.7-0.9l5.1-0.2
		l0.6,1.3l1.3,1.1l1.3-2.3l3.6-3.8h1.5l2.1-7.7l3-3.6l-0.2-4.1l1.9-2.5v-1.1l-0.9-1.1l0.6-1.2l-2.6-1l-8-4.8l-7.4-2.2l-2.8-0.2v-1.9
		l-1.7-1.4h-1.8l-3.4-1.1l-2.2,2.2l-5,0.2l-2.2-1.3l-5.6-1.7l-1.3,1.5l-3.1-2h-2.8L190.8,235.8z"/>
	<path inkscape:label="Sarthe" class="st0" d="M249.4,200.2l-5.1,0.2l-5.1,4.7l-2.7-0.2l-3.5,1.1l-1.1,1.9l-0.5,4.1l0.3,2.5
		l-2.8,2.4l-0.8,1.5l0.6,1.4l-0.8,1.9l0.3,0.8l-3.1,0.3l-0.5,1.4l1.4,3.4l-0.2,0.9l-1.2,1.1l-2.7,0.2l-0.3,0.9l0.6,0.9v5.6l-0.6,1.4
		l1.7,1.4v1.9l2.8,0.2l7.4,2.2l8,4.8l2.6,1l1.3-2.5l3.8,2.7h2.1l-1.1-3.8l2.3,1.5l1.3-1.9l5.5-1.5l-0.9-2.3l1.3-1.7l2.8-1.1l2.6-3.4
		v-3.6h1.9l0.8-2.6l0.2-4l-1.9-1.7l1.5-2.6l2.2-2.8l-2.6-1.9l-2.5-0.4l-2.7-4h-0.8l-0.2,1.9l-0.2-1.3h-4l-1.9-2.8l-3.2-1.1l-0.9-6.8
		L249.4,200.2z"/>
	<path inkscape:label="Orne" class="st0" d="M253.6,173.8l-3.8,0.8l-1.2-0.8l-3.6,0.6l-0.2,1.4l-1.2,0.3l-0.5-2l-1.6,0.3l-2.4,2.7
		l-3.6,2.7l-3.9,1.2l-3.1-1.7L225,180l-2.2-2.2l-2.1,0.8l-3.4,2.4l-3.9-1.1l-2.8,3.3l-3.8,1.1l2.1,1.4l1.9,1.9l-0.5,1.8l0.3,1.6
		l-1.1,3.6l-3.2,2.8l1.3,2.1l2.1,1.5l2.8-1.9l1.9,1.3l5.1-3l5.1,0.8l2.8-1.1l0.8-1.9l1.9-0.2l1.7,1.5l0.8,4.1l2.5,0.9l1,3.4l3.2,0.2
		l5.1-4.7l5.1-0.2l1.5,2.1l0.9,6.8l3.2,1.1l1.9,2.8h4l0.2,1.3l0.2-1.9h0.8l2.7,4l2.1,0.3v-4.5l-1.3-1.7l-0.4-1.5l2.8-1.7l2.8-0.6
		l1.9-2.3l-0.4-7l-4-3.4l-0.2-3.2l-3.4-2.3l1.3-1.9l-0.8-2.8l-2.6-0.9l-1.9-1.9l-1.1-2.6l-5.3-0.2l-1.5-1.9L253.6,173.8z"/>
	<path inkscape:label="Eure-et-Loir" class="st0" d="M292.7,175.2l-1.1,0.9v3l-3.8,1.9v2.8l-1.1,1.3h-4.8l-2.2-0.9l-6.8,3.6h-2.6
		l-2.7,2.6l0.6,0.4l0.2,3.2l4,3.4l0.4,7l-1.9,2.3l-2.8,0.6l-2.8,1.7l0.4,1.5l1.3,1.7v4.5l0.4,0.1l2.6,1.9l-1,1.2l1.9,0.9l3-0.5h1.8
		l-0.1,0.8l-1.6,0.9l1.1,0.8h2.7l0.9,2.2l1.6,0.9l1.2,2.7l4.2,1.1l2.6-0.3l2.3-2.2l2.1,0.6l0.5-1.1l-0.1-1.2l1.1-0.8l1.8,1.1
		l1.1-0.8v-1.5l1.5-1l1.4,0.5l1.2,1.4l2.2-1.2h2.3l1.6-1.8l1-3.5l1.5-0.3l-0.4-3.5l1.8-1.5l-0.5-1.1l0.2-0.4l-0.5,0.1l-0.4-5.1
		l-0.4-0.6l-0.4-2.5l-4-0.8l-1.7-2.1l-0.5-4.2l-2.3-0.4l-0.4-2.1l-2.6-1.9l-1.3-3.2l1.3-2.3l-1.3-1.5V183l0.8-2.1l-1.5-1.5l-0.6-2.3
		L292.7,175.2z"/>
	<path inkscape:label="Yonne" class="st0" d="M361.7,205.5l-1.7,1.3l-7.4-0.4l-3.4,1.7l-1.3,2.8l1.5,1.7l-2.3,2.7l-1.7,2.1l3.4,3.2
		l0.9,3l2.5,2.6v3.4l-4.9,4.1l1.7,1.9l-0.4,2.8l-2.7,1.9h-3.8l0.6,2.1l2.5,3.4l0.6,3l0.6,2.1l-1.1,0.3l2.4,0.5h1.8l0.9-1.5h1.2
		l1.4,1.2l-0.3,1.5l1.2,0.8h1.8l2.5,1.6l1.1-0.5l1.1,0.9l1.1-0.3l1.9-1.2l1.8,0.5l1.2-0.3v-3.4l0.7,0.1l0.4,1.8l2.2,1.4v2.1l3.1,0.1
		l4.1,3.8l2.6,0.1l-0.2-1.2l1.1-1.6l1,1.2l-0.8,1.4l0.4,1.2l1.5-1h1.8l-0.2,2.7l1.6,1.1l1.2-0.5l3-2.1l-0.2-0.4l-1.8-1.1l-0.1-1.9
		l1.9-0.9l0.8-1.1l-0.5-0.9v-2.2l1.5-2.2l2.2-4.6l0.4-2l1.4-0.5l0.2-0.4l-0.7-0.5v-1.6l2.2-1.6l0.5-2.7l-0.9-1.6H395l-0.4-0.4v-2.3
		l1.9-1.4l-0.2-1.4l-0.3-1.4l-1,2.1l-1.3-0.2l-1.1-2.1l-3.8,1.9l-7.6-0.4l-0.9-2.1l-2.1-2.8l-0.4-3.4l-3-3.6l-1.9,1.3l-3.4-2.6
		l0.6-5.1l-4.9-5.1H363L361.7,205.5z"/>
	<path inkscape:label="Loiret" class="st0" d="M318.4,208.5l-2.5,2.3l-5.5,0.5l-0.2,0.4l0.5,1.1l-1.8,1.5l0.4,3.5l-1.5,0.3l-1,3.5
		l-1.6,1.8H303l-2.2,1.2l-1.2-1.4l-1.4-0.5l-1.5,1v1.5l-1.1,0.8l-1.8-1.1l-1.1,0.8l0.1,1.2l-0.5,1.1l0.4,0.1h1.6l-0.1,1.1l-1.1,1.9
		v1h1.1l0.9,1.1l0.3,1.1l-2.1,2.1l1.1,2.6v1.2l1.8,1.2l2.5,0.3l1.6,1.4l0.4,2.3l1.8,2l1.9-0.5l0.8-1.8l3,0.4l0.7,0.7h1.9l0.9-1.1
		l6.9,0.3l1.6,2.4l1.9,0.8l1.6,1.5l2-0.3l0.5-0.7h1.2l1.5,1.9l3.1,0.2l0.8,1.1l2.2,3l0.9,0.8l1.2-0.1l0.2-2.7l0.5-0.3l0.8,0.1
		l1.4,1.8l0.9,0.4l1.9-0.8l-0.3-0.3l-0.2-1.9l3.8-1.1l-0.6-2.1l-0.6-3l-2.5-3.4l-0.6-2.1h3.8l2.7-1.9l0.4-2.8l-1.7-1.9l4.9-4.1v-3.4
		l-2.5-2.6l-0.9-3l-3.4-3.2l-4.7,2.7l-0.4-1.5l-2.1-0.2l-0.6,1.5l-1.9,0.4l-5.1-0.2l-2.1,1.3l-1.7-1.5l3-2.1l-0.2-3.2l-2.3-1.1
		l-1.9-2.8l-5.1-0.4L318.4,208.5z"/>
	<path inkscape:label="Indre" class="st0" d="M300,267.6l-1.2,0.4l-2.5-0.2l-2.8,1l-0.7,1.5l-0.3-0.5l-3.3,0.2l-1.6,1.4l-1.9,0.3
		l-0.3,0.9l1.5,2l-0.4,1.8l-1.8,0.1v1.5l-1.4,1.2l-1.5,2.5l-1.4-1.2l-2-0.4l-3,1.1l-0.7,3.4l-0.9,2.7l-1.5,7.7l-2.1,1.9l-1.7,0.2
		l0.5,0.5v3.6l-0.8,2.3l3.6,2.8l1.9,1.9l3,0.4l1.1,4l2.1,1.1l-0.4,2.8l-1.5,0.3l0.5,0.1l4.8,0.4l1.7-1.7l3,3l3.8-4.4l1.7,1.1
		l2.3-0.2l0.8,0.4l3.4,0.2l1.1-3l9.5,1.1l3.6,0.9l1.6-0.2l0.1-1.5l1.9-1.9l-0.4-1.6l-1.1-2.1l0.4-0.8l0.2-2.5l0.7-0.8l0.2-0.5
		l-1.6-1.5l-0.5-1.9l-2.6-1.4v-1.6l1.9-1.1V294l-1.8-1.5l-0.5-0.9l1.4-0.7l-0.1-1.2l2.1-1.8l-0.1-0.8h-1.8l-1.1-1.2v-0.7l0.9-1.6
		v-1.2l-2.2-2.9l0.4-2.6l-1.2-0.9l-2.6,0.1l-2,0.8l-2.7-0.4l-1.4-1.1l-0.3-0.8l2.2-1.8l0.2-2.1l-2.9-1.6L300,267.6z"/>
	<path inkscape:label="Marne" class="st0" d="M380,149.3l-2.3,1l0.4,1.9h-4l-3.6,2.7v5.1l2.6,1.7l0.8,1.7l-4.4,0.4l-0.5,1.7l1.7,1.1
		l-0.8,1.1l-1.7,0.8l0.4,1.3h2.5l1,1.3l-1.7,1.1l-1.5,4l-2.8,1.3l-1,2.1l-0.9,1.1l0.2,1.1l-1.5,1l-0.4,2.6l1.5,0.9l0.8,2.8l-0.9,1.7
		l0.6,1.3l2.8-0.2v0.9l0.8-0.2l3.3,3.4l4.6-0.8l5.4-3.7h3.2l3.3-2.3l3.8-2.1l2.9,0.2l0.4,3.8l3.4,5.2h3.8l5.4-1.1l3.8,1.3l4-2.9
		l0.6-4.8l4.4-0.8l-0.1-3l-3.6-2.8l-0.4-1.5l1.3-2.3l-1.1-0.9l1.1-2.8l2.1-0.9l1.5-4.7l-3,0.2l1.7-1.9l-1.3-4.2l-1.3-2.8l1.7-1.5
		l-1-0.2l-0.2-1.3c0,0-0.3,0-0.3,0l-1.7-1.5l-1.9,1.9h-0.6l-0.8-1l-4.6-0.2l-0.8,1.1h-1.3l-1.1-2.5h-2.5l-0.6,0.6l-2.5-0.2l-3.1-2.3
		l-2.1-0.6l-0.8-1.1l-4-2.5l-4.6-0.1l0.1,1.7l-1.3,0.4L380,149.3z"/>
	<path inkscape:label="Ardennes" class="st0" d="M409.3,107.2l-1.9,2.8l-1.7,1.7v1.7v2.3l-2.3,1.5l-4.1,1.3l-2.3,0.9l-2.7-2.1h-3.6
		l-0.5,3.4l1.7,3.2l-1.7,1.5l-0.2,2.8l0.9,1.5l-0.8,2.3l-2.8,1.5v2.5l-3.6,0.8l-0.6,1.5l2.5,1.3l-0.8,2.6l-0.6,2.3l0.1,4.7l4.6,0.1
		l4,2.5l0.8,1.1l2.1,0.6l3.1,2.3l2.5,0.2l0.6-0.6h2.5l1.1,2.5h1.3l0.8-1.1l4.6,0.2l0.8,1h0.6l1.9-1.9l1.7,1.5c0,0,0.2,0,0.3,0
		l-0.1-0.8l2.3-1.1l1.1-1.1l-0.7-1.9l-0.2-1.3l2.1-1.7l0.8-3.8l-2.3-2.8l0.8-1.3l1.9-3.6l0.5,0.8h2.8l1.3,1.3l1.7-1.1l1.3-2.2
		l-1.4-0.2l-0.8-3.8l-1.5-1.1l-5.3-0.6l-0.9-2.5l-1.7-1.1l-6.1-0.8l-0.4-4.4l0.8-0.8v-1.7l-3-1.9l0.6-2.1l0.8-1.9l-1.3-1.1l2.1-1.9
		v-3.4l-0.8-0.5H409.3z"/>
	<path inkscape:label="Haute-Marne" class="st0" d="M420.4,188.4l-4.4,0.8l-0.6,4.8l-4,2.9l-2.1-0.7l-1,2.1l-0.2,2.9l3.4,4.8
		l3.3,1.1l0.8,4l0.2,6.9l-1.1,1.7l-3.3,0.2l-2.1,1.9l1.5,1l0.6,2.4l2.3,1.3l3.4,3.6l4.4,5.9l-2.5,2.6l1.7,1.1l0.2,3.2l3-0.2l0.8,1.5
		l2.3,0.2l1.7-0.9l3,3.8l0.4,0.9l4.1-0.9l0.8-1.9l0.2,0v-1.9l2.6-1.1l3,1.1l2.8-1.1h1.7l0.6-3.8l0.9-1.1l-1.7-0.2L447,235l2.6-0.6
		l0.2-1.5h2.7v-2.5l2.1-0.8l-0.6-1.5l0.6-0.4l-1.7-1.4l-2.1,0.8v-4l-5.3-2.6l1.1-5.1l1.7-1.1l-0.5-1.7l-2.5-0.4l-0.5-2.5h-2.3
		l-2.7-3.6l-3-0.2l-1.3-1.9l1.7-1.7l-4-4.4l-1.7-0.6l-4.5-2.3l-2.5-2.6l-4-0.6L420.4,188.4z"/>
	<path inkscape:label="Bas-Rhin" class="st0" d="M518.8,161.8l-3.6,1l-1.7,2.9v2.8l-1.5,1.3h-1.3l-2.5-1.7l-1.9,1.3h-2.3l-1.9-1.9
		l-3.6-0.6l-2.1-0.9l-0.8-2.8l-1.7,1.9l-0.9,4.4l-2.5,0.8v2.5l2.5,1.1l1.9,1.3l-0.8,1.7l1.7,1.1l3-2.3l5.3,3l-2.2,4.2l0.2,1.3
		l1.5,1.5l-1.1,4l-3.8,3.8l-2.1-0.2l1.3,1.3l-0.8,3.4l0.8,5.1l3.6,0.9l-0.3,0.7l2.8-0.2l1.7,2l1.5,1.8l3.7-0.2l1.7,4.8l2.9,1.3
		l0-0.6l4.9-9.7l-0.6-5.5l2.3-7.4l0.6-6.4l4.9-3.6v-2.3l1.9-2.5h1.5l1.7-1.7l-0.4-3.2l1.7-4.5l2.6-0.6l-2.6-2.1l-4.7-0.5l-4.2-2.1
		l-2.8,1.7l-1.5-1.7H518.8z"/>
	<path inkscape:label="Haut-Rhin" class="st0" d="M504.2,204.7l-2.8,0.2l-1.8,4l-2.3,4.5l0.6,2.8l-1.9,4.4l-3.2,2.8l-0.2,7.4l-2.4,2
		l0.1,0.1l0.8,1.5l3,0.2l3.4,2.7l0.5,1.3l-0.2,2.3l-0.9,1.7l0.4,2.3l2.7-0.4l0.6,2.1l0.9,4l2.2-0.4l-0.4,2.1l1.3,1.1l7-0.2l3.6-2.8
		l0.2-4.2l1.9-2.5l-2.5-2.8l-1.3-3l1.5-2.1v-4.8l0.9-2.3V225l1.7-2.5l-1.9-2.6l-0.2-5.4l-2.9-1.3l-1.7-4.8l-3.7,0.2l-1.5-1.8
		L504.2,204.7z"/>
	<path inkscape:label="Moselle" class="st0" d="M463,140.7l-2.8,0.2l-2.3,1.9l-0.6,0.9h-3.2l-1.1-1.1h-0.5c0.1,1.6,0.2,2.8,0.2,2.8
		l-0.9,1.5l2.4,5.2l0.9,0.8l1.1,3l-1.5,2.6l1.7,1.7l-0.7,1.5v2.1h-2.1l-0.2,2.4l3.9,2.4l-0.2,3h3l1.5,2h3.7l3.7,4.7l0.9,2.6h2.4
		l4.8,2.1l4.3,2.6v0.8l2.8,0.2l3.5,2h3.3l2.8,2.1l3.1,2.2l2.2,0.7l3.4-3.4l1.1-4l-1.5-1.5l-0.2-1.3l2.2-4.2l-5.3-3l-3,2.3l-1.7-1.1
		l0.8-1.7l-1.9-1.3l-2.5-1.1v-2.5l2.5-0.8l0.9-4.4l1.7-1.9l0.8,2.8l2.1,0.9l3.6,0.6l1.9,1.9h2.3l1.9-1.3l2.5,1.7h1.3l1.5-1.3v-2.8
		l1.7-2.9l-0.4,0.1l-1.3-1.9l-3.8-2.3l-1.3-2.1l-4.5,0.4l-2.7,2.5l-6.4,0.2l-1.9-1.3c-0.1-0.2-1.1-1.9-1.9-2.3c0,0-0.1,0-0.1-0.1
		c0,0-0.1,0-0.1,0c0,0,0,0-0.1,0c0,0,0,0,0,0c0,0-0.1,0-0.1,0c-0.9,0-2.6-1-2.8-1.1l-2.7,1.1l-0.2,2.3l-3.2,0.4l-1.9-3.6l-1.1-0.4
		V152l-2.7-1.1l-0.2-4.5l-1.9-1.9l-4-1.9h-1.9l-0.6,0.4h-1.9L463,140.7z"/>
	<path inkscape:label="Vosges" class="st0" d="M497.8,194.4l-1.9,0.4l-3,1.1l-1.5,1.8l-1.7,1.1l-3.2,1.5l-0.9-0.2l-2.2-0.6l-2.2-0.2
		l-0.8-2.4l-1.5,0.6l-0.2,2.6l-1.1-1.1l-2,1.5l-2,0.7l-2.4-0.2l-1.7,0.6l-1.8-1.1l-1.1,0.9h-2.8l-1.3,2.4l-6.1,0.4l-1.3-1.7l-2-0.4
		l0.2-0.9l1.3-0.9l-1.1-0.4l-0.2-3l-2.8-0.2l-1.6,0.5l-1.1,1.5l-3,0.9v-1.1h-0.9v1.3l-3.7,0.8v1.7l-3.3,0.4l-1.3,1.3l1.3,1.9l3,0.2
		l2.7,3.6h2.3l0.5,2.5l2.5,0.4l0.5,1.7l-1.7,1.1l-1.1,5.1l5.3,2.6v4l2.1-0.8l1.7,1.4l1.3-0.8l-0.7-1.1l0.9-0.6l1.3,1.5l1.9-1.3
		l0.6-1.9l3.6-0.6l1,0.8l-0.2,2.1l2.5,1.9l1.5-0.2l1.7-1.3h4l2.8,3.2h0.9l1.5-0.9l0.2-1.1l1.5-0.8l1.7,1.1l1.7,1.9l6,3.1l2.4-2
		l0.2-7.4l3.2-2.8l1.9-4.4l-0.6-2.8l2.3-4.5l2.1-4.7l-3.6-0.9l-0.8-5.1l0.8-3.4L497.8,194.4z"/>
	<path inkscape:label="Yvelines" class="st0" d="M296.9,167.5l-0.1,0.1l-5.3,1.5l-0.8,0.9l1,1.5v1.5l1.7,0.4l-1,1l0.1,0.8l0.1-0.1
		l1.9,1.9l0.6,2.3l1.5,1.5l-0.8,2.1v1.9l1.3,1.5l-1.3,2.3l1.3,3.2l2.6,1.9l0.4,2.1l2.3,0.4l0.5,4.2l1.7,2.1l3.1,0.6l0.5-3l1.3-1.5
		l-1.1-1.7h2.8l1.9-2.6l-1.3-2.2l0.4-2l2.8-1.3l0.4-2.1l1.8-0.7l1.7-0.8l0.3,0.2v-0.2l-1.7-1.9l-1.1-2.9l1.7-3.7l-0.8-2.8l-3.3-2
		l-4.7-0.2L305,169l-3.5,0.6L296.9,167.5z"/>
	<path id="path2505" inkscape:label="Val-de-Marne" class="st0" d="M327.2,180.4l-0.8,0.6l-0.8,0.1l-0.1,0.4l-0.1,0.4h0.4l0.2-0.2
		l-0.1-0.3l1.2-0.1l0.3,0.1v0.6l-0.3,0.6l-1.7-0.2l-0.3-0.2l-0.8,0.6l-0.8,0.2l-1.1-0.1l-0.3,1.2l0.3,0.5l-0.5,1.4l0.5,0.9l0.8-0.4
		l2,1.1h3.4l2.1,1l0-0.2l1.5-3.7v-1.7l-0.9-0.2l-0.2-0.4l-0.4-0.2l-0.8-0.9l-1.5-0.8L327.2,180.4z"/>
	<path id="path2507" inkscape:label="Seine-Saint-Denis" class="st0" d="M331.3,172.3l-1.8,1.2l-2.7,1.2l-5,0.3l0.1,0.7l0.4,0.1
		l0.4,0.6l-0.4,0.8l-0.5,0.1l0.4,0.9l2.4,0l0.8,1.2l0.1,1.7l0.8-0.1l0.8-0.6l1.2,0.1l1.5,0.8l0.8,0.9l0.4,0.2l0.2,0.4l0.9,0.2v-2.7
		l-1.1-6.5L331.3,172.3z"/>
	<path id="path2509" inkscape:label="Paris" class="st0" d="M324.6,178.3l-2.4,0l-1.1,0.5l-0.4,0.6l-1,0.1l-0.9,1l0,0.6l0.2,0.7
		l1.5,0.4l1.8,0.9l1.2,0.1l0.8-0.2l0.8-0.6l0.3,0.2l1.7,0.2l0.3-0.6v-0.6l-0.3-0.1l-1.2,0.1l0.1,0.3l-0.2,0.2h-0.4l0.1-0.4l0.1-0.4
		h-0.1l-0.1-1.7L324.6,178.3z"/>
	<path id="path137" inkscape:label="Hauts-de-Seine" class="st0" d="M321.8,175.1l-3.3,1.8l-0.4,0.1l-1.6,3.6l1,2.8l1.7,1.9v0.2
		l2.6,1.8l0.6-0.3l-0.5-0.9l0.5-1.4l-0.3-0.5l0.3-1.2h-0.1l-1.8-0.9l-1.5-0.4l-0.2-0.7l0-0.6l0.9-1l1-0.1l0.4-0.6l1.1-0.5l-0.4-0.9
		l0.5-0.1l0.4-0.8l-0.4-0.6l-0.4-0.1L321.8,175.1z"/>
</g>
<g id="map_00000069358119936374644270000008121726346552725158_" class="st2">
	<g id="_x33_vkwXi_00000110438457705536620860000000837720097557733548_" class="st3">
		
			<image style="overflow:visible;" width="1200" height="1139" id="_x33_vkwXi" xlink:href="B8482D09699500EE.png"  transform="matrix(0.5175 0 0 0.5175 27 22.5675)">
		</image>
	</g>
</g>
<g id="carres" class="st2">
	<rect id="nord" x="333" y="45" class="st4" width="45" height="45"/>
	<rect id="paris" x="297" y="162" class="st4" width="45" height="45"/>
	<rect id="pas_de_calais" x="288" y="36" class="st4" width="36" height="36"/>
	<rect id="seine_saint_denis" x="342" y="135" class="st4" width="36" height="36"/>
	<rect id="hauts_de_seine" x="261" y="144" class="st4" width="36" height="36"/>
	<rect id="yvelines" x="261" y="189" class="st4" width="36" height="36"/>
	<rect id="rhone" x="396" y="315" class="st4" width="36" height="36"/>
	<rect id="isere" x="432" y="360" class="st4" width="36" height="36"/>
	<rect id="bouches_du_rhone" x="405" y="468" class="st4" width="36" height="36"/>
	<rect id="haute_garonne" x="261" y="459" class="st4" width="36" height="36"/>
	<rect id="gironde" x="180" y="378" class="st4" width="36" height="36"/>
	<rect id="essone" x="297" y="216" class="st4" width="36" height="36"/>
	<rect id="val_de_marne" x="333" y="225" class="st4" width="36" height="36"/>
	<rect id="seine_et_marne" x="342" y="180" class="st4" width="36" height="36"/>
	<rect id="seine_maritime" x="261" y="99" class="st4" width="36" height="36"/>
	<rect id="val_doise" x="306" y="117" class="st4" width="36" height="36"/>
	<rect id="somme" x="306" y="81" class="st4" width="27" height="27"/>
	<rect id="eure" x="225" y="144" class="st4" width="27" height="27"/>
	<rect id="ille_et_vilaine" x="162" y="198" class="st4" width="27" height="27"/>
	<rect id="maine_et_loire" x="198" y="243" class="st4" width="27" height="27"/>
	<rect id="vende" x="171" y="288" class="st4" width="27" height="27"/>
	<rect id="charente_maritime" x="180" y="333" class="st4" width="27" height="27"/>
	<rect id="sarthe" x="234" y="216" class="st4" width="27" height="27"/>
	<rect id="indre_et_loire" x="234" y="252" class="st4" width="27" height="27"/>
	<rect id="loire_atlantique" x="144" y="243" class="st4" width="27" height="27"/>
	<rect id="cotes_darmor" x="117" y="180" class="st4" width="27" height="27"/>
	<rect id="morbihan" x="108" y="216" class="st4" width="27" height="27"/>
	<rect id="finistere" x="72" y="189" class="st4" width="27" height="27"/>
	<rect id="calvados" x="189" y="144" class="st4" width="27" height="27"/>
	<rect id="aisne" x="369" y="99" class="st4" width="27" height="27"/>
	<rect id="moselle" x="459" y="135" class="st4" width="27" height="27"/>
	<rect id="marne" x="387" y="162" class="st4" width="27" height="27"/>
	<rect id="cote_dor" x="396" y="234" class="st4" width="27" height="27"/>
	<rect id="ain" x="441" y="306" class="st4" width="27" height="27"/>
	<rect id="alpes_maritimes" x="495" y="441" class="st4" width="27" height="27"/>
	<rect id="var" x="459" y="468" class="st4" width="27" height="27"/>
	<rect id="haute_savoie" x="477" y="315" class="st4" width="27" height="27"/>
	<rect id="savoie" x="477" y="360" class="st4" width="27" height="27"/>
	<rect id="loiret" x="306" y="261" class="st4" width="27" height="27"/>
	<rect id="saone_et_loire" x="387" y="279" class="st4" width="27" height="27"/>
	<rect id="loire" x="369" y="333" class="st4" width="27" height="27"/>
	<rect id="vaucluse" x="423" y="432" class="st4" width="27" height="27"/>
	<rect id="gard" x="378" y="432" class="st4" width="27" height="27"/>
	<rect id="herault" x="342" y="459" class="st4" width="27" height="27"/>
	<rect id="reunion" x="180" y="549" class="st4" width="27" height="27"/>
	<rect id="pyrenees_atlantiques" x="162" y="477" class="st4" width="27" height="27"/>
	<rect id="puy_de_dome" x="324" y="342" class="st4" width="27" height="27"/>
	<rect id="meurthe_et_moselle" x="450" y="171" class="st4" width="27" height="27"/>
	<rect id="bas_rhin" x="504" y="171" class="st4" width="27" height="27"/>
	<rect id="haut_rhin" x="495" y="216" class="st4" width="27" height="27"/>
	<rect id="doubs" x="459" y="252" class="st4" width="27" height="27"/>
	<rect id="ardennes" x="405" y="135" class="st4" width="18" height="18"/>
	<rect id="meuse" x="423" y="162" class="st4" width="18" height="18"/>
	<rect id="aube" x="387" y="198" class="st4" width="18" height="18"/>
	<rect id="yonne" x="369" y="234" class="st4" width="18" height="18"/>
	<rect id="nievre" x="360" y="279" class="st4" width="18" height="18"/>
	<rect id="cher" x="315" y="297" class="st4" width="18" height="18"/>
	<rect id="allier" x="342" y="306" class="st4" width="18" height="18"/>
	<rect id="manche" x="162" y="135" class="st4" width="18" height="18"/>
	<rect id="orne" x="225" y="189" class="st4" width="18" height="18"/>
	<rect id="mayenne" x="198" y="216" class="st4" width="18" height="18"/>
	<rect id="mayenne_00000047048370308730123730000002859131475699521193_" x="207" y="189" class="st4" width="18" height="18"/>
	<rect id="eure_et_loire" x="270" y="243" class="st4" width="18" height="18"/>
	<rect id="deux_sevres" x="207" y="288" class="st4" width="18" height="18"/>
	<rect id="vienne" x="243" y="297" class="st4" width="18" height="18"/>
	<rect id="charente" x="225" y="342" class="st4" width="18" height="18"/>
	<rect id="dordogne" x="243" y="378" class="st4" width="18" height="18"/>
	<rect id="lot_et_garonne" x="234" y="414" class="st4" width="18" height="18"/>
	<rect id="indre" x="279" y="288" class="st4" width="18" height="18"/>
	<rect id="haute_vienne" x="261" y="333" class="st4" width="18" height="18"/>
	<rect id="correze" x="288" y="369" class="st4" width="18" height="18"/>
	<rect id="lot" x="279" y="396" class="st4" width="18" height="18"/>
	<rect id="tarn_et_garonne" x="270" y="432" class="st4" width="18" height="18"/>
	<rect id="cantal" x="324" y="387" class="st4" width="18" height="18"/>
	<rect id="aveyron" x="324" y="423" class="st4" width="18" height="18"/>
	<rect id="tarn" x="306" y="450" class="st4" width="18" height="18"/>
	<rect id="aude" x="315" y="486" class="st4" width="18" height="18"/>
	<rect id="pyrenees_orientales" x="333" y="513" class="st4" width="18" height="18"/>
	<rect id="arriege" x="279" y="504" class="st4" width="18" height="18"/>
	<rect id="gouadeloupe" x="27" y="558" class="st4" width="18" height="18"/>
	<rect id="martinique" x="81" y="558" class="st4" width="18" height="18"/>
	<rect id="guyane" x="135" y="558" class="st4" width="18" height="18"/>
	<rect id="mayotte_00000096758755007006805020000012341085033155812242_" x="234" y="558" class="st4" width="18" height="18"/>
	<rect id="polynesie_francaise" x="387" y="558" class="st4" width="18" height="18"/>
	<rect id="nouvelle_caledonie" x="423" y="558" class="st4" width="18" height="18"/>
	<rect id="gers" x="225" y="459" class="st4" width="18" height="18"/>
	<rect id="landes" x="180" y="441" class="st4" width="18" height="18"/>
	<rect id="haute_pyrenees" x="216" y="495" class="st4" width="18" height="18"/>
	<rect id="haute_loire" x="369" y="378" class="st4" width="18" height="18"/>
	<rect id="ardeche" x="396" y="396" class="st4" width="18" height="18"/>
	<rect id="drome" x="423" y="405" class="st4" width="18" height="18"/>
	<rect id="alpes_de_haute_provence" x="468" y="405" class="st4" width="18" height="18"/>
	
		<rect id="hautes_alpes_00000106859842497683315570000018232260923313357453_" x="468" y="432" class="st4" width="18" height="18"/>
	<rect id="haute_corse" x="549" y="522" class="st4" width="18" height="18"/>
	<rect id="corse_du_sud" x="540" y="558" class="st4" width="18" height="18"/>
	<rect id="creuse" x="306" y="333" class="st4" width="9" height="9"/>
	<rect id="saint_pierre_et_miquelon" x="279" y="567" class="st4" width="9" height="9"/>
	<rect id="saint_barthelemy_et_saint_martin" x="315" y="567" class="st4" width="9" height="9"/>
	<rect id="wallis_et_futuna" x="351" y="567" class="st4" width="9" height="9"/>
	<rect id="lozere" x="360" y="414" class="st4" width="9" height="9"/>
	<rect id="haute_marne" x="414" y="198" class="st4" width="18" height="18"/>
	<rect id="haute_saune" x="441" y="234" class="st4" width="18" height="18"/>
	<rect id="jura" x="432" y="270" class="st4" width="18" height="18"/>
	<rect id="vosges" x="468" y="207" class="st4" width="18" height="18"/>
	<rect id="oise" x="342" y="99" class="st4" width="27" height="27"/>
</g>
<g id="noms" class="st2">
	<rect x="288" y="27" class="st5" width="45" height="9"/>
	<text transform="matrix(1 0 0 1 288 31.334)" class="st6 st7 st8">Pas-de-Calais</text>
	<rect x="405" y="126" class="st5" width="45" height="9"/>
	<text transform="matrix(1 0 0 1 405 130.334)" class="st6 st7 st8">Ardennes</text>
	<rect x="387" y="153" class="st5" width="45" height="9"/>
	<text transform="matrix(1 0 0 1 387 157.334)" class="st6 st7 st8">Marne</text>
	<rect x="387" y="189" class="st5" width="45" height="9"/>
	<text transform="matrix(1 0 0 1 387 193.334)" class="st6 st7 st8">Aube</text>
	<rect x="369" y="225" class="st5" width="45" height="9"/>
	<text transform="matrix(1 0 0 1 369 229.334)" class="st6 st7 st8">Yonnes</text>
	<rect x="396" y="225" class="st5" width="45" height="9"/>
	<text transform="matrix(1 0 0 1 396 229.334)" class="st6 st7 st8">Cte-dOr</text>
	<rect x="441" y="225" class="st5" width="45" height="9"/>
	<text transform="matrix(1 0 0 1 441 229.334)" class="st6 st7 st8">Haute-Sane</text>
	<rect x="387" y="270" class="st5" width="45" height="9"/>
	<text transform="matrix(1 0 0 1 387 274.334)" class="st6 st7 st8">Sane-etLoire</text>
	<rect x="360" y="270" class="st5" width="45" height="9"/>
	<text transform="matrix(1 0 0 1 360 274.334)" class="st6 st7 st8">Nivre</text>
	<rect x="342" y="297" class="st5" width="45" height="9"/>
	<text transform="matrix(1 0 0 1 342 301.334)" class="st6 st7 st8">Allier</text>
	<rect x="369" y="324" class="st5" width="45" height="9"/>
	<text transform="matrix(1 0 0 1 369 328.334)" class="st6 st7 st8">Loire</text>
	<rect x="396" y="306" class="st5" width="45" height="9"/>
	<text transform="matrix(1 0 0 1 396 310.334)" class="st6 st7 st8">Rhne</text>
	<rect x="441" y="297" class="st5" width="45" height="9"/>
	<text transform="matrix(1 0 0 1 441 301.334)" class="st6 st7 st8">Ain</text>
	<rect x="477" y="306" class="st5" width="45" height="9"/>
	<text transform="matrix(1 0 0 1 477 310.334)" class="st6 st7 st8">Haute-Savoie</text>
	<rect x="432" y="351" class="st5" width="45" height="9"/>
	<text transform="matrix(1 0 0 1 432 355.334)" class="st6 st7 st8">Isre</text>
	<rect x="477" y="351" class="st5" width="45" height="9"/>
	<text transform="matrix(1 0 0 1 477 355.334)" class="st6 st7 st8">Savoie</text>
	<rect x="396" y="387" class="st5" width="45" height="9"/>
	<text transform="matrix(1 0 0 1 396 391.334)" class="st6 st7 st8">Ardche</text>
	<rect x="423" y="396" class="st5" width="45" height="9"/>
	<text transform="matrix(1 0 0 1 423 400.334)" class="st6 st7 st8">Drme</text>
	<rect x="423" y="423" class="st5" width="45" height="18"/>
	<text transform="matrix(1 0 0 1 423 427.334)" class="st6 st7 st8">Vaucluse</text>
	<rect x="468" y="396" class="st5" width="45" height="9"/>
	<text transform="matrix(1 0 0 1 468 400.334)" class="st6 st7 st8">Hautes-Alpes</text>
	<rect x="468" y="423" class="st5" width="72" height="9"/>
	<text transform="matrix(1 0 0 1 468 427.334)" class="st6 st7 st8">Alpes-de-Haute-Provences</text>
	<rect x="495" y="432" class="st5" width="45" height="9"/>
	<text transform="matrix(1 0 0 1 495 436.334)" class="st6 st7 st8">Alpes-maritimes</text>
	<rect x="459" y="459" class="st5" width="45" height="9"/>
	<text transform="matrix(1 0 0 1 459 463.334)" class="st6 st7 st8">Var</text>
	<rect x="405" y="459" class="st5" width="63" height="18"/>
	<text transform="matrix(1 0 0 1 405 463.334)" class="st6 st7 st8">Bouches-du-Rhne</text>
	<rect x="378" y="423" class="st5" width="45" height="9"/>
	<text transform="matrix(1 0 0 1 378 427.334)" class="st6 st7 st8">Gard</text>
	<rect x="360" y="405" class="st5" width="45" height="9"/>
	<text transform="matrix(1 0 0 1 360 409.334)" class="st6 st7 st8">Lozre</text>
	<rect x="369" y="369" class="st5" width="45" height="9"/>
	<text transform="matrix(1 0 0 1 369 373.334)" class="st6 st7 st8">Haute-Loire</text>
	<rect x="324" y="333" class="st5" width="45" height="9"/>
	<text transform="matrix(1 0 0 1 324 337.334)" class="st6 st7 st8">Puy-de-Dme</text>
	<rect x="324" y="378" class="st5" width="45" height="9"/>
	<text transform="matrix(1 0 0 1 324 382.334)" class="st6 st7 st8">Cantal</text>
	<rect x="288" y="360" class="st5" width="45" height="9"/>
	<text transform="matrix(1 0 0 1 288 364.334)" class="st6 st7 st8">Corrze</text>
	<rect x="243" y="369" class="st5" width="45" height="9"/>
	<text transform="matrix(1 0 0 1 243 373.334)" class="st6 st7 st8">Dordogne</text>
	<rect x="324" y="414" class="st5" width="45" height="9"/>
	<text transform="matrix(1 0 0 1 324 418.334)" class="st6 st7 st8">Aveyron</text>
	<rect x="342" y="450" class="st5" width="45" height="9"/>
	<text transform="matrix(1 0 0 1 342 454.334)" class="st6 st7 st8">Hrault</text>
	<rect x="315" y="477" class="st5" width="45" height="9"/>
	<text transform="matrix(1 0 0 1 315 481.334)" class="st6 st7 st8">Aude</text>
	<rect x="333" y="504" class="st5" width="63" height="9"/>
	<text transform="matrix(1 0 0 1 333 508.334)" class="st6 st7 st8">Pyrnes-Orientales</text>
	<rect x="27" y="549" class="st5" width="45" height="9"/>
	<text transform="matrix(1 0 0 1 27 553.334)" class="st6 st7 st8">Guadeloupe</text>
	<rect x="81" y="549" class="st5" width="45" height="9"/>
	<text transform="matrix(1 0 0 1 81 553.334)" class="st6 st7 st8">Martinique</text>
	<rect x="135" y="549" class="st5" width="45" height="9"/>
	<text transform="matrix(1 0 0 1 135 553.334)" class="st6 st7 st8">Guyane</text>
	<rect x="180" y="540" class="st5" width="45" height="9"/>
	<text transform="matrix(1 0 0 1 180 544.334)" class="st6 st7 st8">La Runion</text>
	<rect x="234" y="549" class="st5" width="45" height="9"/>
	<text transform="matrix(1 0 0 1 234 553.334)" class="st6 st7 st8">Mayotte</text>
	<rect x="279" y="549" class="st5" width="27" height="18"/>
	<text transform="matrix(1 0 0 1 279 553.334)" class="st6"><tspan x="0" y="0" class="st7 st8">Saint</tspan><tspan x="13.8" y="0" class="st7 st8">-</tspan><tspan x="0" y="6.6" class="st7 st8">Pierre-et-</tspan><tspan x="0" y="13.2" class="st7 st8">Miquelon</tspan></text>
	<rect x="315" y="549" class="st5" width="45" height="18"/>
	<text transform="matrix(1 0 0 1 315 553.334)" class="st6"><tspan x="0" y="0" class="st7 st8">Saint-Barthle</tspan><tspan x="38.1" y="0" class="st7 st8">-</tspan><tspan x="0" y="6.6" class="st7 st8">my et </tspan><tspan x="0" y="13.2" class="st7 st8">saint-Martin</tspan></text>
	<rect x="351" y="549" class="st5" width="27" height="18"/>
	<text transform="matrix(1 0 0 1 351 553.334)" class="st6"><tspan x="0" y="0" class="st7 st8">Wal</tspan><tspan x="10.5" y="0" class="st7 st8">-</tspan><tspan x="0" y="6.6" class="st7 st8">lis)et)Fu</tspan><tspan x="21.2" y="6.6" class="st7 st8">-</tspan><tspan x="0" y="13.2" class="st7 st8">tuna</tspan></text>
	<rect x="423" y="549" class="st5" width="63" height="9"/>
	<text transform="matrix(1 0 0 1 423 553.334)" class="st6 st7 st8">Nouvelle-Caldonie</text>
	<rect x="387" y="540" class="st5" width="45" height="18"/>
	<text transform="matrix(1 0 0 1 387 544.334)" class="st6"><tspan x="0" y="0" class="st7 st8">Polynsie </tspan><tspan x="0" y="6.6" class="st7 st8">franaise</tspan></text>
	<rect x="540" y="549" class="st5" width="45" height="9"/>
	<text transform="matrix(1 0 0 1 540 553.334)" class="st6 st7 st8">Corse-du-Sud</text>
	<rect x="549" y="513" class="st5" width="45" height="9"/>
	<text transform="matrix(1 0 0 1 549 517.334)" class="st6 st7 st8">Haute-Corse</text>
	<rect x="306" y="441" class="st5" width="45" height="9"/>
	<text transform="matrix(1 0 0 1 306 445.334)" class="st6 st7 st8">Tarn</text>
	<rect x="279" y="387" class="st5" width="45" height="9"/>
	<text transform="matrix(1 0 0 1 279 391.334)" class="st6 st7 st8">Lot</text>
	<rect x="270" y="423" class="st5" width="45" height="9"/>
	<text transform="matrix(1 0 0 1 270 427.334)" class="st6 st7 st8">Tarn-etGaronne</text>
	<rect x="261" y="450" class="st5" width="45" height="9"/>
	<text transform="matrix(1 0 0 1 261 454.334)" class="st6 st7 st8">Haute-Garonne</text>
	<rect x="279" y="495" class="st5" width="45" height="9"/>
	<text transform="matrix(1 0 0 1 279 499.334)" class="st6 st7 st8">Arige</text>
	<rect x="216" y="486" class="st5" width="45" height="9"/>
	<text transform="matrix(1 0 0 1 216 490.334)" class="st6 st7 st8">Hautes-Pyrnes</text>
	<rect x="225" y="450" class="st5" width="45" height="9"/>
	<text transform="matrix(1 0 0 1 225 454.334)" class="st6 st7 st8">Gers</text>
	<rect x="234" y="405" class="st5" width="45" height="9"/>
	<text transform="matrix(1 0 0 1 234 409.334)" class="st6 st7 st8">Lot-et-Garone</text>
	<rect x="180" y="432" class="st5" width="45" height="9"/>
	<text transform="matrix(1 0 0 1 180 436.334)" class="st6 st7 st8">Landes</text>
	<rect x="162" y="468" class="st5" width="63" height="9"/>
	<text transform="matrix(1 0 0 1 162 472.334)" class="st6 st7 st8">Pyrnes-Atlantiques</text>
	<rect x="180" y="369" class="st5" width="45" height="9"/>
	<text transform="matrix(1 0 0 1 180 373.334)" class="st6 st7 st8">Gironde</text>
	<rect x="225" y="333" class="st5" width="45" height="9"/>
	<text transform="matrix(1 0 0 1 225 337.334)" class="st6 st7 st8">Charente</text>
	<rect x="180" y="324" class="st5" width="54" height="9"/>
	<text transform="matrix(1 0 0 1 180 328.334)" class="st6 st7 st8">Charente-Martime</text>
	<rect x="261" y="324" class="st5" width="45" height="9"/>
	<text transform="matrix(1 0 0 1 261 328.334)" class="st6 st7 st8">Haute-Vienne</text>
	<rect x="306" y="324" class="st5" width="45" height="9"/>
	<text transform="matrix(1 0 0 1 306 328.334)" class="st6 st7 st8">Creuse</text>
	<rect x="315" y="288" class="st5" width="45" height="9"/>
	<text transform="matrix(1 0 0 1 315 292.334)" class="st6 st7 st8">Cher</text>
	<rect x="279" y="279" class="st5" width="45" height="9"/>
	<text transform="matrix(1 0 0 1 279 283.334)" class="st6 st7 st8">Indre</text>
	<rect x="243" y="288" class="st5" width="45" height="9"/>
	<text transform="matrix(1 0 0 1 243 292.334)" class="st6 st7 st8">Vienne</text>
	<rect x="207" y="279" class="st5" width="45" height="9"/>
	<text transform="matrix(1 0 0 1 207 283.334)" class="st6 st7 st8">Deux-Svres</text>
	<rect x="171" y="279" class="st5" width="45" height="9"/>
	<text transform="matrix(1 0 0 1 171 283.334)" class="st6 st7 st8">Vende</text>
	<rect x="144" y="234" class="st5" width="45" height="9"/>
	<text transform="matrix(1 0 0 1 144 238.334)" class="st6 st7 st8">Loire-Atlantique</text>
	<rect x="198" y="234" class="st5" width="45" height="9"/>
	<text transform="matrix(1 0 0 1 198 238.334)" class="st6 st7 st8">Maine-etLoire</text>
	<rect x="234" y="243" class="st5" width="45" height="9"/>
	<text transform="matrix(1 0 0 1 234 247.334)" class="st6 st7 st8">Indre-et-Loire</text>
	<rect x="270" y="225" class="st5" width="18" height="18"/>
	<text transform="matrix(1 0 0 1 270 229.334)" class="st6"><tspan x="0" y="0" class="st7 st8">Loir-et</tspan><tspan x="0" y="6.6" class="st7 st8">-Cher</tspan></text>
	<rect x="297" y="207" class="st5" width="45" height="9"/>
	<text transform="matrix(1 0 0 1 297 211.334)" class="st6 st7 st8">Essone</text>
	<rect x="333" y="216" class="st5" width="45" height="9"/>
	<text transform="matrix(1 0 0 1 333 220.334)" class="st6 st7 st8">Val-de-Marne</text>
	<rect x="306" y="252" class="st5" width="45" height="9"/>
	<text transform="matrix(1 0 0 1 306 256.334)" class="st6 st7 st8">Loiret</text>
	<rect x="342" y="171" class="st5" width="45" height="9"/>
	<text transform="matrix(1 0 0 1 342 175.334)" class="st6 st7 st8">Seine-et-Marne</text>
	<rect x="297" y="153" class="st5" width="45" height="9"/>
	<text transform="matrix(1 0 0 1 297 157.334)" class="st6 st7 st8">Paris</text>
	<rect x="225" y="135" class="st5" width="45" height="9"/>
	<text transform="matrix(1 0 0 1 225 139.334)" class="st6 st7 st8">Eure</text>
	<rect x="225" y="180" class="st5" width="45" height="9"/>
	<text transform="matrix(1 0 0 1 225 184.334)" class="st6 st7 st8">Eure-et-Loir</text>
	<rect x="261" y="180" class="st5" width="45" height="9"/>
	<text transform="matrix(1 0 0 1 261 184.334)" class="st6 st7 st8">Yvelines</text>
	<rect x="234" y="207" class="st5" width="45" height="9"/>
	<text transform="matrix(1 0 0 1 234 211.334)" class="st6 st7 st8">Sarthe</text>
	<rect x="198" y="207" class="st5" width="45" height="9"/>
	<text transform="matrix(1 0 0 1 198 211.334)" class="st6 st7 st8">Mayenne</text>
	<rect x="207" y="180" class="st5" width="18" height="9"/>
	<text transform="matrix(1 0 0 1 207 184.334)" class="st6 st7 st8">Orne</text>
	<rect x="189" y="135" class="st5" width="45" height="9"/>
	<text transform="matrix(1 0 0 1 189 139.334)" class="st6 st7 st8">Calvados</text>
	<rect x="162" y="126" class="st5" width="45" height="9"/>
	<text transform="matrix(1 0 0 1 162 130.334)" class="st6 st7 st8">Manche</text>
	<rect x="162" y="189" class="st5" width="45" height="9"/>
	<text transform="matrix(1 0 0 1 162 193.334)" class="st6 st7 st8">Ille-et-Vilaine</text>
	<rect x="108" y="207" class="st5" width="45" height="9"/>
	<text transform="matrix(1 0 0 1 108 211.334)" class="st6 st7 st8">Morbihan</text>
	<rect x="117" y="171" class="st5" width="45" height="9"/>
	<text transform="matrix(1 0 0 1 117 175.334)" class="st6 st7 st8">Ctes-dArmor</text>
	<rect x="72" y="180" class="st5" width="45" height="9"/>
	<text transform="matrix(1 0 0 1 72 184.334)" class="st6 st7 st8">Finistre</text>
	<rect x="495" y="207" class="st5" width="45" height="9"/>
	<text transform="matrix(1 0 0 1 495 211.334)" class="st6 st7 st8">Haut-Rhin</text>
	<rect x="459" y="243" class="st5" width="45" height="9"/>
	<text transform="matrix(1 0 0 1 459 247.334)" class="st6 st7 st8">Doubs</text>
	<rect x="432" y="261" class="st5" width="45" height="9"/>
	<text transform="matrix(1 0 0 1 432 265.334)" class="st6 st7 st8">Jura</text>
	<rect x="423" y="153" class="st5" width="45" height="9"/>
	<text transform="matrix(1 0 0 1 423 157.334)" class="st6 st7 st8">Meuse</text>
	<rect x="459" y="126" class="st5" width="45" height="9"/>
	<text transform="matrix(1 0 0 1 459 130.334)" class="st6 st7 st8">Moselle</text>
	<rect x="504" y="162" class="st5" width="45" height="9"/>
	<text transform="matrix(1 0 0 1 504 166.334)" class="st6 st7 st8">Bas-Rhin</text>
	<rect x="450" y="162" class="st5" width="63" height="9"/>
	<text transform="matrix(1 0 0 1 450 166.334)" class="st6 st7 st8">Meurthe-et-Moselle</text>
	<rect x="414" y="189" class="st5" width="45" height="9"/>
	<text transform="matrix(1 0 0 1 414 193.334)" class="st6 st7 st8">Haute-Marne</text>
	<rect x="468" y="198" class="st5" width="45" height="9"/>
	<text transform="matrix(1 0 0 1 468 202.334)" class="st6 st7 st8">Vosges</text>
	<rect x="333" y="36" class="st5" width="45" height="9"/>
	<text transform="matrix(1 0 0 1 333 40.334)" class="st6 st7 st8">Nord</text>
	<rect x="306" y="72" class="st5" width="45" height="9"/>
	<text transform="matrix(1 0 0 1 306 76.334)" class="st6 st7 st8">Somme</text>
	<rect x="261" y="90" class="st5" width="45" height="9"/>
	<text transform="matrix(1 0 0 1 261 94.334)" class="st6 st7 st8">Seine-Maritime</text>
	<rect x="261" y="135" class="st5" width="45" height="9"/>
	<text transform="matrix(1 0 0 1 261 139.334)" class="st6 st7 st8">Hauts-de-Seine</text>
	<rect x="306" y="108" class="st5" width="45" height="9"/>
	<text transform="matrix(1 0 0 1 306 112.334)" class="st6 st7 st8">Val-dOise</text>
	<rect x="342" y="126" class="st5" width="54" height="9"/>
	<text transform="matrix(1 0 0 1 342 130.334)" class="st6 st7 st8">Seine-Saint-Denis</text>
	<rect x="342" y="90" class="st5" width="45" height="9"/>
	<text transform="matrix(1 0 0 1 342 94.334)" class="st6 st7 st8">Oise</text>
	<rect x="369" y="90" class="st5" width="45" height="9"/>
	<text transform="matrix(1 0 0 1 369 94.334)" class="st6 st7 st8">Asine</text>
</g>
</svg>
